<svg version="1.1" id="Layer_1" xmlns="http://www.w3.org/2000/svg" xmlns:xlink="http://www.w3.org/1999/xlink" x="0px" y="0px"
	 width="100%" viewBox="0 0 360 360" enable-background="new 0 0 360 360" xml:space="preserve">
<path fill="#BABABA" opacity="1.000000" stroke="none" 
	d="
M1.000000,58.000000 
	C1.000000,52.311958 1.000000,46.623920 1.258300,40.792038 
	C14.339478,27.912420 27.166298,15.180588 39.955441,2.411022 
	C40.198048,2.168785 39.995075,1.480286 40.000000,1.000000 
	C45.354931,1.000000 50.709858,1.000000 56.206944,1.261923 
	C58.547733,3.146650 60.994877,4.520342 62.908264,6.429089 
	C100.030678,43.461483 137.095825,80.551308 174.158707,117.643356 
	C180.512222,124.001892 180.463364,124.012428 186.509491,117.954948 
	C196.936264,107.508614 207.330643,97.028885 217.850571,86.676933 
	C226.037918,78.620331 234.510040,70.851570 242.642029,62.740753 
	C249.477768,55.922825 255.867447,48.657593 262.704865,41.841442 
	C271.080261,33.492104 280.097748,25.756035 288.102600,17.076887 
	C293.244751,11.501583 298.012207,5.786568 304.964203,2.394049 
	C305.156982,2.299966 304.996002,1.480966 305.000000,1.000000 
	C310.022095,1.000000 315.044189,1.000000 320.207275,1.263488 
	C324.910583,5.348152 329.727631,8.907637 333.979828,13.047322 
	C341.794617,20.655319 349.286591,28.595413 356.888916,36.420593 
	C358.317200,37.890774 359.632538,39.470703 361.000000,40.999992 
	C361.000000,46.354931 361.000000,51.709858 360.748413,57.200356 
	C353.632233,64.753601 346.948639,72.349289 339.865387,79.551926 
	C325.102570,94.563469 310.192474,109.431969 295.224396,124.239449 
	C277.458374,141.814819 259.622253,159.320404 241.681107,176.716599 
	C238.439148,179.860062 238.327469,181.948318 241.629517,185.224213 
	C268.473755,211.855774 295.253693,238.553894 321.851074,265.431763 
	C334.770264,278.487122 347.255035,291.972382 359.967804,305.232971 
	C360.093781,305.364380 360.646515,305.086700 361.000000,305.000000 
	C361.000000,310.354919 361.000000,315.709869 360.747009,321.198669 
	C357.105835,325.292175 353.908295,329.436462 350.289612,333.172913 
	C342.867523,340.836487 335.234283,348.296173 327.654175,355.805725 
	C325.837311,357.605652 323.888245,359.272125 322.000000,361.000000 
	C316.311951,361.000000 310.623932,361.000000 304.799927,360.748718 
	C300.584656,356.977905 296.270111,353.693146 292.474487,349.890381 
	C284.350616,341.751221 276.633942,333.205078 268.492767,325.083954 
	C259.300934,315.914703 249.739792,307.116577 240.499710,297.994507 
	C231.891418,289.496124 223.471756,280.805939 215.010666,272.159485 
	C208.460785,265.466095 202.058685,258.626190 195.432297,252.010239 
	C190.828033,247.413223 185.954697,243.085693 180.546631,238.024887 
	C170.073593,248.766647 160.059113,259.139587 149.930740,269.400085 
	C137.874542,281.613525 125.727570,293.737457 113.606636,305.886902 
	C104.693947,314.820557 95.821785,323.795959 86.816353,332.635376 
	C79.215889,340.095734 71.457924,347.395935 63.751881,354.748383 
	C61.532944,356.865479 59.252327,358.917908 57.000000,361.000000 
	C51.645069,361.000000 46.290142,361.000000 40.801346,360.747009 
	C38.821297,359.209015 36.699276,358.188446 35.173115,356.596619 
	C24.196766,345.147980 13.345968,333.579010 2.416812,322.084839 
	C2.178451,321.834137 1.482500,322.018555 1.000000,322.000000 
	C1.000000,316.645081 1.000000,311.290131 1.261715,305.793091 
	C5.186018,301.086426 8.549469,296.236572 12.573796,292.017090 
	C20.816757,283.374390 29.417728,275.073273 37.865135,266.625366 
	C47.298504,257.191437 56.721512,247.747131 66.155548,238.313873 
	C76.583427,227.886856 86.934677,217.381332 97.476830,207.071075 
	C106.182777,198.556641 115.118271,190.276932 124.067924,181.783234 
	C122.488113,179.996033 121.222466,178.398758 119.789604,176.969070 
	C106.737007,163.945343 93.601021,151.004761 80.599960,137.929932 
	C70.946419,128.221649 61.471989,118.335457 51.888115,108.557579 
	C46.907413,103.476044 41.871315,98.448662 36.844639,93.412399 
	C26.601717,83.149918 16.358232,72.887939 6.088804,62.652027 
	C4.462565,61.031094 2.699697,59.547234 1.000000,58.000000 
z"/>
<path fill="#000000" opacity="000000" stroke="none" 
	d="
M304.531342,1.000000 
	C304.996002,1.480966 305.156982,2.299966 304.964203,2.394049 
	C298.012207,5.786568 293.244751,11.501583 288.102600,17.076887 
	C280.097748,25.756035 271.080261,33.492104 262.704865,41.841442 
	C255.867447,48.657593 249.477768,55.922825 242.642029,62.740753 
	C234.510040,70.851570 226.037918,78.620331 217.850571,86.676933 
	C207.330643,97.028885 196.936264,107.508614 186.509491,117.954948 
	C180.463364,124.012428 180.512222,124.001892 174.158707,117.643356 
	C137.095825,80.551308 100.030678,43.461483 62.908264,6.429089 
	C60.994877,4.520342 58.547733,3.146650 56.674549,1.261923 
	C139.354233,1.000000 221.708450,1.000000 304.531342,1.000000 
z"/>
<path fill="#000000" opacity="000000" stroke="none" 
	d="
M361.000000,304.531372 
	C360.646515,305.086700 360.093781,305.364380 359.967804,305.232971 
	C347.255035,291.972382 334.770264,278.487122 321.851074,265.431763 
	C295.253693,238.553894 268.473755,211.855774 241.629517,185.224213 
	C238.327469,181.948318 238.439148,179.860062 241.681107,176.716599 
	C259.622253,159.320404 277.458374,141.814819 295.224396,124.239449 
	C310.192474,109.431969 325.102570,94.563469 339.865387,79.551926 
	C346.948639,72.349289 353.632233,64.753601 360.748413,57.667961 
	C361.000000,140.020889 361.000000,222.041794 361.000000,304.531372 
z"/>
<path fill="#000000" opacity="000000" stroke="none" 
	d="
M1.000000,58.468658 
	C2.699697,59.547234 4.462565,61.031094 6.088804,62.652027 
	C16.358232,72.887939 26.601717,83.149918 36.844639,93.412399 
	C41.871315,98.448662 46.907413,103.476044 51.888115,108.557579 
	C61.471989,118.335457 70.946419,128.221649 80.599960,137.929932 
	C93.601021,151.004761 106.737007,163.945343 119.789604,176.969070 
	C121.222466,178.398758 122.488113,179.996033 124.067924,181.783234 
	C115.118271,190.276932 106.182777,198.556641 97.476830,207.071075 
	C86.934677,217.381332 76.583427,227.886856 66.155548,238.313873 
	C56.721512,247.747131 47.298504,257.191437 37.865135,266.625366 
	C29.417728,275.073273 20.816757,283.374390 12.573796,292.017090 
	C8.549469,296.236572 5.186018,301.086426 1.261715,305.325470 
	C1.000000,222.979111 1.000000,140.958206 1.000000,58.468658 
z"/>
<path fill="#000000" opacity="000000" stroke="none" 
	d="
M57.468658,361.000000 
	C59.252327,358.917908 61.532944,356.865479 63.751881,354.748383 
	C71.457924,347.395935 79.215889,340.095734 86.816353,332.635376 
	C95.821785,323.795959 104.693947,314.820557 113.606636,305.886902 
	C125.727570,293.737457 137.874542,281.613525 149.930740,269.400085 
	C160.059113,259.139587 170.073593,248.766647 180.546631,238.024887 
	C185.954697,243.085693 190.828033,247.413223 195.432297,252.010239 
	C202.058685,258.626190 208.460785,265.466095 215.010666,272.159485 
	C223.471756,280.805939 231.891418,289.496124 240.499710,297.994507 
	C249.739792,307.116577 259.300934,315.914703 268.492767,325.083954 
	C276.633942,333.205078 284.350616,341.751221 292.474487,349.890381 
	C296.270111,353.693146 300.584656,356.977905 304.332001,360.748718 
	C221.979111,361.000000 139.958206,361.000000 57.468658,361.000000 
z"/>
<path fill="#000000" opacity="000000" stroke="none" 
	d="
M361.000000,40.531334 
	C359.632538,39.470703 358.317200,37.890774 356.888916,36.420593 
	C349.286591,28.595413 341.794617,20.655319 333.979828,13.047322 
	C329.727631,8.907637 324.910583,5.348152 320.674133,1.263488 
	C334.259979,1.000000 347.519989,1.000000 361.000000,1.000000 
	C361.000000,14.020069 361.000000,27.041376 361.000000,40.531334 
z"/>
<path fill="#000000" opacity="000000" stroke="none" 
	d="
M39.531342,1.000000 
	C39.995075,1.480286 40.198048,2.168785 39.955441,2.411022 
	C27.166298,15.180588 14.339478,27.912420 1.258300,40.324100 
	C1.000000,27.073353 1.000000,14.146708 1.000000,1.000000 
	C13.686713,1.000000 26.374699,1.000000 39.531342,1.000000 
z"/>
<path fill="#000000" opacity="000000" stroke="none" 
	d="
M1.000000,322.468628 
	C1.482500,322.018555 2.178451,321.834137 2.416812,322.084839 
	C13.345968,333.579010 24.196766,345.147980 35.173115,356.596619 
	C36.699276,358.188446 38.821297,359.209015 40.333740,360.747009 
	C27.073357,361.000000 14.146712,361.000000 1.000000,361.000000 
	C1.000000,348.313293 1.000000,335.625305 1.000000,322.468628 
z"/>
<path fill="#000000" opacity="000000" stroke="none" 
	d="
M322.468658,361.000000 
	C323.888245,359.272125 325.837311,357.605652 327.654175,355.805725 
	C335.234283,348.296173 342.867523,340.836487 350.289612,333.172913 
	C353.908295,329.436462 357.105835,325.292175 360.747009,321.666260 
	C361.000000,334.926636 361.000000,347.853302 361.000000,361.000000 
	C348.313293,361.000000 335.625305,361.000000 322.468658,361.000000 
z"/>
</svg>