<svg version="1.1" id="Layer_1" xmlns="http://www.w3.org/2000/svg" xmlns:xlink="http://www.w3.org/1999/xlink" x="0px" y="0px"
	 width="100%" viewBox="0 0 619 469" enable-background="new 0 0 619 469" xml:space="preserve">
<path fill="#FFFFFF" opacity="1.000000" stroke="none" 
	d="
M620.000000,295.000000 
	C620.000000,323.354218 620.000000,351.708466 619.601562,380.320618 
	C618.802124,382.422943 617.854797,384.347229 618.110352,386.095642 
	C618.695618,390.099457 616.814209,392.531250 613.855896,394.566528 
	C611.176575,396.409851 608.464783,398.205963 605.782349,400.044800 
	C580.054077,417.681366 553.503296,433.944092 524.645935,445.962860 
	C505.768921,453.824921 486.479401,460.695770 467.402252,468.081757 
	C466.780487,468.322479 466.460632,469.343018 466.000000,470.000000 
	C463.958344,470.000000 461.916656,470.000000 459.780151,469.774231 
	C449.124664,452.699280 438.547180,435.860565 428.020721,418.990021 
	C426.359436,416.327515 426.901337,415.205658 430.236328,413.752869 
	C446.577667,406.634186 462.671387,398.947021 479.231537,391.285431 
	C475.634766,388.279205 472.952606,386.121704 470.368256,383.852844 
	C467.968475,381.746033 465.670959,381.257416 462.680359,382.978668 
	C459.307251,384.919983 455.693695,386.507996 452.054382,387.911743 
	C430.031891,396.406464 407.698181,403.729401 384.461609,408.413849 
	C363.812683,412.576630 343.018799,415.536469 322.057465,415.751678 
	C303.606110,415.941162 285.086243,414.514679 266.685364,412.831421 
	C253.878082,411.659851 241.055740,409.551727 228.531769,406.617310 
	C203.803604,400.823273 179.689804,392.965668 156.597687,382.211792 
	C155.731400,381.808350 154.237396,381.570831 153.609024,382.033844 
	C150.006149,384.688416 146.576660,387.578278 142.035065,391.236816 
	C160.154236,399.789337 177.305359,407.884918 194.948242,416.212616 
	C189.288284,425.907837 183.597488,435.995331 177.569077,445.876831 
	C172.586395,454.044159 167.204819,461.968170 162.000000,470.000000 
	C159.958328,470.000000 157.916672,470.000000 155.777374,469.718994 
	C154.878204,468.950348 154.135025,468.282501 153.266647,468.001190 
	C123.773415,458.448792 94.912666,447.279144 67.964882,431.863617 
	C48.317703,420.624390 29.317972,408.256348 9.966940,396.494629 
	C4.414154,393.119537 2.197085,388.402985 2.971764,382.056549 
	C3.151894,380.580902 3.169535,379.023315 2.878190,377.580963 
	C2.751367,376.953094 1.655669,376.520996 1.000003,376.000000 
	C1.000000,350.312439 1.000000,324.624878 1.429524,298.441833 
	C2.234573,297.324066 2.876277,296.729584 2.944695,296.075195 
	C3.678263,289.058929 4.008938,281.986481 5.051228,275.019379 
	C7.560208,258.248260 9.537633,241.332520 13.266839,224.822372 
	C21.380323,188.901962 32.885006,153.924072 49.283772,120.953056 
	C61.749249,95.890236 76.446342,71.936546 90.179962,47.505913 
	C93.140144,42.240063 97.334763,38.383373 103.153969,36.360424 
	C106.527412,35.187710 109.821609,33.779587 113.124123,32.411411 
	C144.754730,19.307375 177.368240,9.480889 210.974838,2.925602 
	C211.745758,2.775226 212.329147,1.663371 213.000000,0.999999 
	C216.692902,1.000000 220.385818,1.000000 224.195770,1.241823 
	C229.832123,12.193923 235.351410,22.904202 240.895737,33.663025 
	C263.782135,30.460499 287.022339,28.867912 310.446411,28.861691 
	C334.013733,28.855431 357.400055,30.511286 380.689789,33.717960 
	C384.604553,25.484072 388.470581,17.395166 392.294373,9.286345 
	C393.584595,6.550177 394.767853,3.763553 396.000000,0.999995 
	C399.692902,1.000000 403.385834,1.000000 407.244843,1.345941 
	C409.841492,2.457104 412.245605,3.322511 414.706726,3.971771 
	C435.275970,9.398044 456.098053,14.018838 476.354431,20.429132 
	C492.113373,25.416180 507.192810,32.566383 522.512329,38.904774 
	C524.287292,39.639164 526.073181,41.047470 527.168030,42.620728 
	C544.807922,67.968872 560.287109,94.587265 572.873474,122.794151 
	C579.361633,137.334396 585.849792,151.970245 590.847229,167.056702 
	C597.632141,187.539246 603.359680,208.398148 608.806702,229.287048 
	C611.675842,240.289856 613.290100,251.655685 614.907471,262.938385 
	C616.348999,272.994476 616.982605,283.165314 618.099548,293.271515 
	C618.170105,293.909882 619.341003,294.426636 620.000000,295.000000 
M439.289520,312.939728 
	C444.221069,308.434723 449.592957,304.320374 454.001312,299.351227 
	C467.042145,284.651428 469.987640,266.615387 467.653137,248.114120 
	C465.645782,232.205872 458.155945,218.238174 444.822144,208.415848 
	C432.362366,199.237274 418.609924,194.793106 402.937012,198.488907 
	C383.355469,203.106430 370.541931,215.519806 363.205200,233.638229 
	C354.825500,254.332291 356.481750,274.702484 368.369080,293.601746 
	C384.283447,318.903473 413.512054,327.557861 439.289520,312.939728 
M202.323502,197.898483 
	C200.674347,198.025787 198.959534,197.903473 197.385818,198.317520 
	C170.026794,205.515945 155.201965,228.583252 153.165359,252.795273 
	C151.426468,273.467743 157.884399,291.757599 173.548325,305.955505 
	C190.876709,321.662079 211.984894,324.850525 231.958832,313.779663 
	C250.983444,303.234924 261.030182,285.714203 262.840027,264.236115 
	C264.632141,242.967911 258.026337,224.285263 241.472000,210.103424 
	C230.535431,200.734253 217.763824,195.940277 202.323502,197.898483 
z"/>
<path fill="#000000" opacity="000000" stroke="none" 
	d="
M162.468658,470.000000 
	C167.204819,461.968170 172.586395,454.044159 177.569077,445.876831 
	C183.597488,435.995331 189.288284,425.907837 194.948242,416.212616 
	C177.305359,407.884918 160.154236,399.789337 142.035065,391.236816 
	C146.576660,387.578278 150.006149,384.688416 153.609024,382.033844 
	C154.237396,381.570831 155.731400,381.808350 156.597687,382.211792 
	C179.689804,392.965668 203.803604,400.823273 228.531769,406.617310 
	C241.055740,409.551727 253.878082,411.659851 266.685364,412.831421 
	C285.086243,414.514679 303.606110,415.941162 322.057465,415.751678 
	C343.018799,415.536469 363.812683,412.576630 384.461609,408.413849 
	C407.698181,403.729401 430.031891,396.406464 452.054382,387.911743 
	C455.693695,386.507996 459.307251,384.919983 462.680359,382.978668 
	C465.670959,381.257416 467.968475,381.746033 470.368256,383.852844 
	C472.952606,386.121704 475.634766,388.279205 479.231537,391.285431 
	C462.671387,398.947021 446.577667,406.634186 430.236328,413.752869 
	C426.901337,415.205658 426.359436,416.327515 428.020721,418.990021 
	C438.547180,435.860565 449.124664,452.699280 459.342651,469.774231 
	C360.312439,470.000000 261.624878,470.000000 162.468658,470.000000 
z"/>
<path fill="#000000" opacity="000000" stroke="none" 
	d="
M212.531342,0.999999 
	C212.329147,1.663371 211.745758,2.775226 210.974838,2.925602 
	C177.368240,9.480889 144.754730,19.307375 113.124123,32.411411 
	C109.821609,33.779587 106.527412,35.187710 103.153969,36.360424 
	C97.334763,38.383373 93.140144,42.240063 90.179962,47.505913 
	C76.446342,71.936546 61.749249,95.890236 49.283772,120.953056 
	C32.885006,153.924072 21.380323,188.901962 13.266839,224.822372 
	C9.537633,241.332520 7.560208,258.248260 5.051228,275.019379 
	C4.008938,281.986481 3.678263,289.058929 2.944695,296.075195 
	C2.876277,296.729584 2.234573,297.324066 1.429524,297.973175 
	C1.000000,199.085129 1.000000,100.170265 1.000000,1.000000 
	C71.354019,1.000000 141.708359,1.000000 212.531342,0.999999 
z"/>
<path fill="#000000" opacity="000000" stroke="none" 
	d="
M620.000000,294.531342 
	C619.341003,294.426636 618.170105,293.909882 618.099548,293.271515 
	C616.982605,283.165314 616.348999,272.994476 614.907471,262.938385 
	C613.290100,251.655685 611.675842,240.289856 608.806702,229.287048 
	C603.359680,208.398148 597.632141,187.539246 590.847229,167.056702 
	C585.849792,151.970245 579.361633,137.334396 572.873474,122.794151 
	C560.287109,94.587265 544.807922,67.968872 527.168030,42.620728 
	C526.073181,41.047470 524.287292,39.639164 522.512329,38.904774 
	C507.192810,32.566383 492.113373,25.416180 476.354431,20.429132 
	C456.098053,14.018838 435.275970,9.398044 414.706726,3.971771 
	C412.245605,3.322511 409.841492,2.457104 407.705475,1.345941 
	C478.605530,1.000000 549.211060,1.000000 620.000000,1.000000 
	C620.000000,98.687485 620.000000,196.375076 620.000000,294.531342 
z"/>
<path fill="#000000" opacity="000000" stroke="none" 
	d="
M1.000003,376.468658 
	C1.655669,376.520996 2.751367,376.953094 2.878190,377.580963 
	C3.169535,379.023315 3.151894,380.580902 2.971764,382.056549 
	C2.197085,388.402985 4.414154,393.119537 9.966940,396.494629 
	C29.317972,408.256348 48.317703,420.624390 67.964882,431.863617 
	C94.912666,447.279144 123.773415,458.448792 153.266647,468.001190 
	C154.135025,468.282501 154.878204,468.950348 155.339874,469.718994 
	C103.757362,470.000000 52.514732,470.000000 1.000000,470.000000 
	C1.000000,438.979645 1.000000,407.958466 1.000003,376.468658 
z"/>
<path fill="#000000" opacity="000000" stroke="none" 
	d="
M466.468689,470.000000 
	C466.460632,469.343018 466.780487,468.322479 467.402252,468.081757 
	C486.479401,460.695770 505.768921,453.824921 524.645935,445.962860 
	C553.503296,433.944092 580.054077,417.681366 605.782349,400.044800 
	C608.464783,398.205963 611.176575,396.409851 613.855896,394.566528 
	C616.814209,392.531250 618.695618,390.099457 618.110352,386.095642 
	C617.854797,384.347229 618.802124,382.422943 619.601562,380.789246 
	C620.000000,410.613159 620.000000,440.226349 620.000000,470.000000 
	C568.979248,470.000000 517.958252,470.000000 466.468689,470.000000 
z"/>
<path fill="#000000" opacity="000000" stroke="none" 
	d="
M395.531311,0.999995 
	C394.767853,3.763553 393.584595,6.550177 392.294373,9.286345 
	C388.470581,17.395166 384.604553,25.484072 380.689789,33.717960 
	C357.400055,30.511286 334.013733,28.855431 310.446411,28.861691 
	C287.022339,28.867912 263.782135,30.460499 240.895737,33.663025 
	C235.351410,22.904202 229.832123,12.193923 224.656403,1.241823 
	C281.687561,1.000000 338.375122,1.000000 395.531311,0.999995 
z"/>
<path fill="#000000" opacity="000000" stroke="none" 
	d="
M438.923187,313.011353 
	C413.512054,327.557861 384.283447,318.903473 368.369080,293.601746 
	C356.481750,274.702484 354.825500,254.332291 363.205200,233.638229 
	C370.541931,215.519806 383.355469,203.106430 402.937012,198.488907 
	C418.609924,194.793106 432.362366,199.237274 444.822144,208.415848 
	C458.155945,218.238174 465.645782,232.205872 467.653137,248.114120 
	C469.987640,266.615387 467.042145,284.651428 454.001312,299.351227 
	C449.592957,304.320374 444.221069,308.434723 438.923187,313.011353 
z"/>
<path fill="#000000" opacity="000000" stroke="none" 
	d="
M202.702942,197.660339 
	C217.763824,195.940277 230.535431,200.734253 241.472000,210.103424 
	C258.026337,224.285263 264.632141,242.967911 262.840027,264.236115 
	C261.030182,285.714203 250.983444,303.234924 231.958832,313.779663 
	C211.984894,324.850525 190.876709,321.662079 173.548325,305.955505 
	C157.884399,291.757599 151.426468,273.467743 153.165359,252.795273 
	C155.201965,228.583252 170.026794,205.515945 197.385818,198.317520 
	C198.959534,197.903473 200.674347,198.025787 202.702942,197.660339 
z"/>
</svg>