<svg version="1.1" id="Layer_1" xmlns="http://www.w3.org/2000/svg" xmlns:xlink="http://www.w3.org/1999/xlink" x="0px" y="0px"
	 width="100%" viewBox="0 0 500 500" enable-background="new 0 0 500 500" xml:space="preserve">
<path fill="#000000" opacity="000000" stroke="none" 
	d="
M501.000000,283.000000 
	C501.000000,355.632812 501.000000,428.265594 501.000000,500.949219 
	C334.444885,500.949219 167.889725,500.949219 1.000000,500.949219 
	C1.000000,428.645569 1.000000,356.290649 1.427513,283.475098 
	C2.235548,283.609314 2.855697,284.165131 2.959757,284.804871 
	C4.078689,291.684113 4.669826,298.681183 6.255394,305.446838 
	C12.255730,331.050385 21.657873,355.332245 34.974770,378.090790 
	C50.674622,404.921753 70.779915,427.933502 94.939651,447.353119 
	C116.192162,464.435852 140.108383,476.960266 165.465973,486.762482 
	C179.933853,492.355164 191.162186,488.578461 190.041534,469.779358 
	C189.471054,460.209686 189.294189,450.615387 189.018845,441.029907 
	C188.905151,437.071930 189.000000,433.107971 189.000000,429.419891 
	C181.519623,430.311127 174.448868,431.604858 167.339554,431.871613 
	C160.448517,432.130157 153.464462,431.762817 146.615662,430.911163 
	C132.046219,429.099487 119.303246,423.340424 111.093254,410.626373 
	C106.242256,403.114014 102.868118,394.664490 98.340492,386.922607 
	C92.698616,377.275391 86.707306,367.847809 76.151627,362.501709 
	C73.597145,361.207916 71.299072,359.051514 69.439674,356.826630 
	C66.761902,353.622528 67.656380,351.396576 71.800133,350.005615 
	C78.302185,347.823059 84.705704,348.831207 90.785950,351.391663 
	C102.285667,356.234314 110.520866,364.764221 117.053696,375.232727 
	C127.691757,392.279510 142.596191,402.716187 163.255997,401.754456 
	C171.634903,401.364380 179.919266,398.369202 188.160217,396.226868 
	C189.355438,395.916138 190.446289,393.864258 190.926682,392.401672 
	C192.224014,388.451874 192.593536,384.108490 194.374435,380.425751 
	C197.556503,373.845612 201.504837,367.635986 205.325073,360.934143 
	C202.094482,360.367828 198.217865,359.558716 194.303757,359.024414 
	C176.768890,356.630981 160.155090,351.613678 144.466263,343.191650 
	C123.916512,332.160095 110.196167,315.516083 101.979012,293.984680 
	C97.334976,281.815948 94.163788,269.305359 94.014610,256.215302 
	C93.876060,244.058243 92.770355,231.724472 94.387161,219.779358 
	C96.779747,202.102707 105.071732,186.582993 116.542625,172.821198 
	C117.491386,171.682953 117.433769,169.328842 117.187737,167.634949 
	C115.908997,158.831253 113.098190,150.020950 113.346542,141.284760 
	C113.632675,131.219376 116.342667,121.184242 118.434036,111.227135 
	C119.316154,107.027374 121.700577,103.403503 126.970055,104.043381 
	C130.159241,104.430656 133.313004,105.162933 136.457825,105.853355 
	C153.025650,109.490700 167.768341,117.139420 181.895462,126.270729 
	C185.309143,128.477234 188.596497,131.514145 193.589020,129.895615 
	C210.755142,124.330498 228.591171,122.806793 246.471085,122.105034 
	C254.030167,121.808357 261.679474,122.261360 269.207764,123.095581 
	C280.327698,124.327812 291.447845,125.830986 302.430145,127.937050 
	C309.829803,129.356079 316.763489,131.563278 323.113770,125.096146 
	C325.518463,122.647217 328.946350,121.118080 332.067352,119.472061 
	C345.911804,112.170441 360.080658,105.639320 375.911987,104.149216 
	C378.180389,103.935699 382.349701,105.231735 382.729889,106.623749 
	C385.565460,117.006111 388.401947,127.492920 389.791199,138.135849 
	C391.150116,148.546249 388.548706,158.851425 385.674957,168.937378 
	C385.354309,170.062866 385.678894,171.681168 386.305878,172.701141 
	C387.489166,174.626160 389.134796,176.262756 390.545624,178.052811 
	C401.489990,191.938782 408.422607,207.833939 409.709808,225.253906 
	C411.026428,243.071884 410.560699,261.041840 406.087128,278.695953 
	C400.524048,300.649628 390.576508,319.598053 372.574402,334.066071 
	C354.213257,348.822632 332.592712,354.875092 310.103088,358.985931 
	C305.704071,359.790070 301.271881,360.412811 296.023529,361.252197 
	C309.065887,374.099426 312.965698,388.968811 312.990845,405.240723 
	C313.026855,428.569153 312.993988,451.897614 313.002686,475.226074 
	C313.006683,486.005737 322.073303,492.621338 331.914459,488.486725 
	C345.341370,482.845612 358.706055,476.992249 371.765594,470.556580 
	C389.608246,461.763885 405.255005,449.582489 419.954315,436.367584 
	C434.983734,422.855804 447.877106,407.378265 459.176819,390.538696 
	C469.542725,375.090759 478.007568,358.669403 484.740479,341.429047 
	C491.839355,323.251801 496.943085,304.452667 499.076141,284.948944 
	C499.153961,284.237701 500.333740,283.646912 501.000000,283.000000 
z"/>
<path fill="#FFFFFF" opacity="1.000000" stroke="none" 
	d="
M501.000000,282.531311 
	C500.333740,283.646912 499.153961,284.237701 499.076141,284.948944 
	C496.943085,304.452667 491.839355,323.251801 484.740479,341.429047 
	C478.007568,358.669403 469.542725,375.090759 459.176819,390.538696 
	C447.877106,407.378265 434.983734,422.855804 419.954315,436.367584 
	C405.255005,449.582489 389.608246,461.763885 371.765594,470.556580 
	C358.706055,476.992249 345.341370,482.845612 331.914459,488.486725 
	C322.073303,492.621338 313.006683,486.005737 313.002686,475.226074 
	C312.993988,451.897614 313.026855,428.569153 312.990845,405.240723 
	C312.965698,388.968811 309.065887,374.099426 296.023529,361.252197 
	C301.271881,360.412811 305.704071,359.790070 310.103088,358.985931 
	C332.592712,354.875092 354.213257,348.822632 372.574402,334.066071 
	C390.576508,319.598053 400.524048,300.649628 406.087128,278.695953 
	C410.560699,261.041840 411.026428,243.071884 409.709808,225.253906 
	C408.422607,207.833939 401.489990,191.938782 390.545624,178.052811 
	C389.134796,176.262756 387.489166,174.626160 386.305878,172.701141 
	C385.678894,171.681168 385.354309,170.062866 385.674957,168.937378 
	C388.548706,158.851425 391.150116,148.546249 389.791199,138.135849 
	C388.401947,127.492920 385.565460,117.006111 382.729889,106.623749 
	C382.349701,105.231735 378.180389,103.935699 375.911987,104.149216 
	C360.080658,105.639320 345.911804,112.170441 332.067352,119.472061 
	C328.946350,121.118080 325.518463,122.647217 323.113770,125.096146 
	C316.763489,131.563278 309.829803,129.356079 302.430145,127.937050 
	C291.447845,125.830986 280.327698,124.327812 269.207764,123.095581 
	C261.679474,122.261360 254.030167,121.808357 246.471085,122.105034 
	C228.591171,122.806793 210.755142,124.330498 193.589020,129.895615 
	C188.596497,131.514145 185.309143,128.477234 181.895462,126.270729 
	C167.768341,117.139420 153.025650,109.490700 136.457825,105.853355 
	C133.313004,105.162933 130.159241,104.430656 126.970055,104.043381 
	C121.700577,103.403503 119.316154,107.027374 118.434036,111.227135 
	C116.342667,121.184242 113.632675,131.219376 113.346542,141.284760 
	C113.098190,150.020950 115.908997,158.831253 117.187737,167.634949 
	C117.433769,169.328842 117.491386,171.682953 116.542625,172.821198 
	C105.071732,186.582993 96.779747,202.102707 94.387161,219.779358 
	C92.770355,231.724472 93.876060,244.058243 94.014610,256.215302 
	C94.163788,269.305359 97.334976,281.815948 101.979012,293.984680 
	C110.196167,315.516083 123.916512,332.160095 144.466263,343.191650 
	C160.155090,351.613678 176.768890,356.630981 194.303757,359.024414 
	C198.217865,359.558716 202.094482,360.367828 205.325073,360.934143 
	C201.504837,367.635986 197.556503,373.845612 194.374435,380.425751 
	C192.593536,384.108490 192.224014,388.451874 190.926682,392.401672 
	C190.446289,393.864258 189.355438,395.916138 188.160217,396.226868 
	C179.919266,398.369202 171.634903,401.364380 163.255997,401.754456 
	C142.596191,402.716187 127.691757,392.279510 117.053696,375.232727 
	C110.520866,364.764221 102.285667,356.234314 90.785950,351.391663 
	C84.705704,348.831207 78.302185,347.823059 71.800133,350.005615 
	C67.656380,351.396576 66.761902,353.622528 69.439674,356.826630 
	C71.299072,359.051514 73.597145,361.207916 76.151627,362.501709 
	C86.707306,367.847809 92.698616,377.275391 98.340492,386.922607 
	C102.868118,394.664490 106.242256,403.114014 111.093254,410.626373 
	C119.303246,423.340424 132.046219,429.099487 146.615662,430.911163 
	C153.464462,431.762817 160.448517,432.130157 167.339554,431.871613 
	C174.448868,431.604858 181.519623,430.311127 189.000000,429.419891 
	C189.000000,433.107971 188.905151,437.071930 189.018845,441.029907 
	C189.294189,450.615387 189.471054,460.209686 190.041534,469.779358 
	C191.162186,488.578461 179.933853,492.355164 165.465973,486.762482 
	C140.108383,476.960266 116.192162,464.435852 94.939651,447.353119 
	C70.779915,427.933502 50.674622,404.921753 34.974770,378.090790 
	C21.657873,355.332245 12.255730,331.050385 6.255394,305.446838 
	C4.669826,298.681183 4.078689,291.684113 2.959757,284.804871 
	C2.855697,284.165131 2.235548,283.609314 1.427513,283.007263 
	C1.000000,261.979095 1.000000,240.958206 1.427504,219.461395 
	C2.231512,218.558136 2.860336,218.175949 2.946164,217.696564 
	C4.001001,211.804642 4.948750,205.893692 5.976966,199.996857 
	C11.474608,168.467728 24.268091,139.793793 41.557735,113.226074 
	C53.523891,94.838577 67.851158,78.282303 84.546173,63.714184 
	C103.093437,47.529800 123.309395,34.260166 145.526779,23.763395 
	C168.291916,13.007833 192.091614,6.105621 217.029633,2.925143 
	C217.756439,2.832451 218.346283,1.665867 219.000000,0.999999 
	C240.020889,1.000000 261.041779,1.000000 282.229919,1.364964 
	C283.067291,2.147678 283.695892,2.829254 284.413940,2.942211 
	C291.303711,4.026022 298.342255,4.470786 305.084381,6.129882 
	C326.293884,11.349085 346.864807,18.238724 366.305603,28.573605 
	C393.624115,43.096317 417.758545,61.352116 438.281525,84.611359 
	C454.565491,103.066422 467.756927,123.337967 478.248352,145.547791 
	C488.998566,168.305496 495.902466,192.098495 499.074890,217.030807 
	C499.167297,217.757111 500.334137,218.346680 501.000000,219.000000 
	C501.000000,240.020889 501.000000,261.041779 501.000000,282.531311 
z"/>
<path fill="#000000" opacity="000000" stroke="none" 
	d="
M218.531342,0.999999 
	C218.346283,1.665867 217.756439,2.832451 217.029633,2.925143 
	C192.091614,6.105621 168.291916,13.007833 145.526779,23.763395 
	C123.309395,34.260166 103.093437,47.529800 84.546173,63.714184 
	C67.851158,78.282303 53.523891,94.838577 41.557735,113.226074 
	C24.268091,139.793793 11.474608,168.467728 5.976966,199.996857 
	C4.948750,205.893692 4.001001,211.804642 2.946164,217.696564 
	C2.860336,218.175949 2.231512,218.558136 1.427504,218.992737 
	C1.000000,146.406296 1.000000,73.812584 1.000000,1.000000 
	C73.354080,1.000000 145.708389,1.000000 218.531342,0.999999 
z"/>
<path fill="#000000" opacity="000000" stroke="none" 
	d="
M501.000000,218.531342 
	C500.334137,218.346680 499.167297,217.757111 499.074890,217.030807 
	C495.902466,192.098495 488.998566,168.305496 478.248352,145.547791 
	C467.756927,123.337967 454.565491,103.066422 438.281525,84.611359 
	C417.758545,61.352116 393.624115,43.096317 366.305603,28.573605 
	C346.864807,18.238724 326.293884,11.349085 305.084381,6.129882 
	C298.342255,4.470786 291.303711,4.026022 284.413940,2.942211 
	C283.695892,2.829254 283.067291,2.147678 282.698608,1.364964 
	C355.593689,1.000000 428.187408,1.000000 501.000000,1.000000 
	C501.000000,73.354080 501.000000,145.708389 501.000000,218.531342 
z"/>
</svg>