<svg version="1.1" id="Layer_1" xmlns="http://www.w3.org/2000/svg" xmlns:xlink="http://www.w3.org/1999/xlink" x="0px" y="0px"
	 width="100%" viewBox="0 0 225 225" enable-background="new 0 0 225 225" xml:space="preserve">
<path fill="#010101" opacity="000000" stroke="none" 
	d="
M226.000000,118.000000 
	C226.000000,153.964249 226.000000,189.928513 226.000000,225.946381 
	C151.110245,225.946381 76.220436,225.946381 1.000000,225.946381 
	C1.000000,190.313126 1.000000,154.625214 1.246674,118.125854 
	C4.338781,120.489571 7.204439,123.646912 10.023943,126.844933 
	C12.819312,130.015564 15.379261,130.352737 18.893837,127.390602 
	C41.210045,108.582191 63.680077,89.956261 86.104126,71.275848 
	C95.224571,63.678040 104.356865,56.094456 113.441322,48.539711 
	C114.540413,49.325401 115.248901,49.766819 115.884644,50.295673 
	C145.583801,75.001907 175.434433,99.529968 204.876617,124.538872 
	C214.029724,132.313736 214.291229,129.949661 220.414520,122.977943 
	C222.048019,121.118088 224.126053,119.648666 226.000000,118.000000 
M116.420372,63.093231 
	C114.556862,60.851208 112.792786,60.709488 110.755920,63.029579 
	C109.571693,64.378487 107.963242,65.352509 106.558098,66.510277 
	C83.126297,85.816902 59.677418,105.102951 36.314625,124.492722 
	C34.947815,125.627098 33.430149,127.596458 33.415874,129.190079 
	C33.224792,150.521210 33.202309,171.855209 33.343052,193.187119 
	C33.385330,199.595062 37.069340,202.871399 43.443981,202.892807 
	C52.277012,202.922470 61.110218,202.899948 69.943352,202.899872 
	C78.388184,202.899796 86.833015,202.899857 95.725601,202.899857 
	C95.725601,184.964279 95.725601,167.558731 95.725601,150.008575 
	C107.759956,150.008575 119.336029,150.008575 131.362106,150.008575 
	C131.362106,167.649124 131.362106,185.058517 131.362106,202.899918 
	C133.425247,202.899918 135.054474,202.899902 136.683685,202.899902 
	C152.016663,202.899933 167.349655,202.903748 182.682632,202.898407 
	C190.513275,202.895691 193.702835,199.658279 193.707809,191.657104 
	C193.720245,171.657562 193.612869,151.657074 193.804260,131.659363 
	C193.838211,128.110733 192.702881,125.844162 190.044556,123.669479 
	C165.630341,103.697327 141.296799,83.626587 116.420372,63.093231 
z"/>
<path fill="#000000" opacity="000000" stroke="none" 
	d="
M1.000000,112.000000 
	C1.000000,75.036240 1.000000,38.072475 1.000000,1.054358 
	C75.890274,1.054358 150.780594,1.054358 226.000000,1.054358 
	C226.000000,37.686905 226.000000,74.374794 225.731415,111.835686 
	C216.003540,104.794327 206.629990,96.872078 197.026489,89.239128 
	C194.529831,87.254753 193.624649,85.254715 193.650284,82.141731 
	C193.787369,65.489838 193.722824,48.836216 193.710953,32.183201 
	C193.706650,26.129045 192.593628,25.051962 186.389206,25.039503 
	C179.394943,25.025457 172.400650,25.025591 165.406387,25.039444 
	C158.961563,25.052208 158.128143,25.866276 158.119904,32.138649 
	C158.109528,40.031506 158.117386,47.924385 158.117386,56.719101 
	C146.395935,46.988487 135.540604,37.840263 124.528938,28.884275 
	C117.369926,23.061722 109.390602,23.147810 102.328850,29.015911 
	C70.824806,55.194805 39.380142,81.445183 7.863841,107.609283 
	C5.790084,109.330864 3.297674,110.548141 1.000000,112.000000 
z"/>
<path fill="#F9FBF9" opacity="1.000000" stroke="none" 
	d="
M1.000000,112.428467 
	C3.297674,110.548141 5.790084,109.330864 7.863841,107.609283 
	C39.380142,81.445183 70.824806,55.194805 102.328850,29.015911 
	C109.390602,23.147810 117.369926,23.061722 124.528938,28.884275 
	C135.540604,37.840263 146.395935,46.988487 158.117386,56.719101 
	C158.117386,47.924385 158.109528,40.031506 158.119904,32.138649 
	C158.128143,25.866276 158.961563,25.052208 165.406387,25.039444 
	C172.400650,25.025591 179.394943,25.025457 186.389206,25.039503 
	C192.593628,25.051962 193.706650,26.129045 193.710953,32.183201 
	C193.722824,48.836216 193.787369,65.489838 193.650284,82.141731 
	C193.624649,85.254715 194.529831,87.254753 197.026489,89.239128 
	C206.629990,96.872078 216.003540,104.794327 225.731415,112.304344 
	C226.000000,113.714355 226.000000,115.428719 226.000000,117.571533 
	C224.126053,119.648666 222.048019,121.118088 220.414520,122.977943 
	C214.291229,129.949661 214.029724,132.313736 204.876617,124.538872 
	C175.434433,99.529968 145.583801,75.001907 115.884644,50.295673 
	C115.248901,49.766819 114.540413,49.325401 113.441322,48.539711 
	C104.356865,56.094456 95.224571,63.678040 86.104126,71.275848 
	C63.680077,89.956261 41.210045,108.582191 18.893837,127.390602 
	C15.379261,130.352737 12.819312,130.015564 10.023943,126.844933 
	C7.204439,123.646912 4.338781,120.489571 1.246674,117.657196 
	C1.000000,116.285645 1.000000,114.571281 1.000000,112.428467 
z"/>
<path fill="#FAFCFA" opacity="1.000000" stroke="none" 
	d="
M116.680069,63.338898 
	C141.296799,83.626587 165.630341,103.697327 190.044556,123.669479 
	C192.702881,125.844162 193.838211,128.110733 193.804260,131.659363 
	C193.612869,151.657074 193.720245,171.657562 193.707809,191.657104 
	C193.702835,199.658279 190.513275,202.895691 182.682632,202.898407 
	C167.349655,202.903748 152.016663,202.899933 136.683685,202.899902 
	C135.054474,202.899902 133.425247,202.899918 131.362106,202.899918 
	C131.362106,185.058517 131.362106,167.649124 131.362106,150.008575 
	C119.336029,150.008575 107.759956,150.008575 95.725601,150.008575 
	C95.725601,167.558731 95.725601,184.964279 95.725601,202.899857 
	C86.833015,202.899857 78.388184,202.899796 69.943352,202.899872 
	C61.110218,202.899948 52.277012,202.922470 43.443981,202.892807 
	C37.069340,202.871399 33.385330,199.595062 33.343052,193.187119 
	C33.202309,171.855209 33.224792,150.521210 33.415874,129.190079 
	C33.430149,127.596458 34.947815,125.627098 36.314625,124.492722 
	C59.677418,105.102951 83.126297,85.816902 106.558098,66.510277 
	C107.963242,65.352509 109.571693,64.378487 110.755920,63.029579 
	C112.792786,60.709488 114.556862,60.851208 116.680069,63.338898 
z"/>
</svg>