<svg version="1.1" id="Layer_1" xmlns="http://www.w3.org/2000/svg" xmlns:xlink="http://www.w3.org/1999/xlink" x="0px" y="0px"
	 width="100%" viewBox="0 0 950 400" enable-background="new 0 0 950 400" xml:space="preserve">
<path fill="#000000" opacity="0.000000" stroke="none" 
	d="
M429.000000,1.000000 
	C498.020905,1.000000 567.041809,1.000000 636.825806,1.326015 
	C636.785645,2.105397 635.973450,2.543697 635.180542,3.014484 
	C628.853455,6.771197 621.700928,9.621724 616.364624,14.470362 
	C601.811768,27.693378 598.002014,44.907864 602.152405,63.547894 
	C606.838440,84.593399 627.149841,101.211067 648.843445,101.058830 
	C681.164429,100.832008 713.489075,100.869896 745.810120,101.092232 
	C753.809692,101.147255 761.983276,101.499939 769.763916,103.171959 
	C796.712891,108.963120 818.521606,122.962379 833.968933,146.060928 
	C849.002747,168.540970 853.552856,193.652084 848.717346,219.767593 
	C843.703491,246.846741 828.990295,268.474060 805.930603,283.987213 
	C788.178589,295.929688 768.197815,300.834473 747.139099,300.913452 
	C683.327820,301.152771 619.515015,301.073120 555.703308,300.907684 
	C547.710815,300.886963 539.530945,300.468567 531.766418,298.749878 
	C507.747559,293.433258 487.413391,281.658630 472.366760,261.806183 
	C459.758759,245.171234 452.340088,226.605972 451.939850,205.427399 
	C451.681641,191.763519 448.851898,178.680206 439.488159,168.071594 
	C431.193146,158.673737 420.771301,152.438065 408.193512,151.109222 
	C393.830292,149.591766 380.333496,152.236221 368.920135,161.995148 
	C358.493774,170.910156 351.810272,181.924789 351.083466,195.761108 
	C350.108093,214.329712 352.235016,232.584412 356.893951,250.677689 
	C365.271973,283.214172 380.805573,311.810333 403.248810,336.586517 
	C415.686523,350.317108 430.048187,361.866791 445.957184,371.584656 
	C469.201660,385.783325 494.110565,395.061737 521.029114,399.072571 
	C521.765442,399.182281 522.346497,400.334106 523.000000,401.000000 
	C453.979095,401.000000 384.958221,401.000000 315.174225,400.674011 
	C315.214905,399.894592 316.027771,399.456512 316.821075,398.985474 
	C323.148041,395.228455 330.300476,392.377594 335.636444,387.528595 
	C350.188080,374.304962 353.998566,357.090363 349.847382,338.450714 
	C345.160248,317.404449 324.848877,300.788696 303.155182,300.941101 
	C270.834259,301.168213 238.509644,301.130127 206.188660,300.907776 
	C198.189041,300.852783 190.015457,300.500183 182.234879,298.827972 
	C155.286270,293.036163 133.477661,279.037262 118.030846,255.937943 
	C102.997856,233.457458 98.446640,208.346756 103.282799,182.231277 
	C108.297348,155.152542 123.010109,133.525391 146.070328,118.012398 
	C163.822769,106.070023 183.803802,101.166039 204.862000,101.086838 
	C268.673096,100.846794 332.485870,100.926903 396.297455,101.092354 
	C404.289917,101.113075 412.469757,101.531937 420.234283,103.250443 
	C444.253571,108.566574 464.587189,120.342239 479.633728,140.194443 
	C492.241669,156.829224 499.660309,175.394547 500.060150,196.573257 
	C500.318115,210.237091 503.147705,223.320389 512.512207,233.928879 
	C520.807617,243.326370 531.229126,249.562042 543.807007,250.890854 
	C558.170288,252.408264 571.667053,249.763428 583.080261,240.004776 
	C593.506592,231.089905 600.189819,220.074921 600.916626,206.238678 
	C601.891968,187.670105 599.765076,169.415436 595.106018,151.322174 
	C586.727844,118.785751 571.194336,90.189522 548.751099,65.413353 
	C536.313416,51.682777 521.951721,40.133144 506.042786,30.415281 
	C482.798370,16.216614 457.889465,6.938222 430.970947,2.927445 
	C430.234558,2.817726 429.653503,1.665884 429.000000,1.000000 
z"/>
<path fill="#FFFFFF" opacity="1.000000" stroke="none" 
	d="
M428.531342,1.000000 
	C429.653503,1.665884 430.234558,2.817726 430.970947,2.927445 
	C457.889465,6.938222 482.798370,16.216614 506.042786,30.415281 
	C521.951721,40.133144 536.313416,51.682777 548.751099,65.413353 
	C571.194336,90.189522 586.727844,118.785751 595.106018,151.322174 
	C599.765076,169.415436 601.891968,187.670105 600.916626,206.238678 
	C600.189819,220.074921 593.506592,231.089905 583.080261,240.004776 
	C571.667053,249.763428 558.170288,252.408264 543.807007,250.890854 
	C531.229126,249.562042 520.807617,243.326370 512.512207,233.928879 
	C503.147705,223.320389 500.318115,210.237091 500.060150,196.573257 
	C499.660309,175.394547 492.241669,156.829224 479.633728,140.194443 
	C464.587189,120.342239 444.253571,108.566574 420.234283,103.250443 
	C412.469757,101.531937 404.289917,101.113075 396.297455,101.092354 
	C332.485870,100.926903 268.673096,100.846794 204.862000,101.086838 
	C183.803802,101.166039 163.822769,106.070023 146.070328,118.012398 
	C123.010109,133.525391 108.297348,155.152542 103.282799,182.231277 
	C98.446640,208.346756 102.997856,233.457458 118.030846,255.937943 
	C133.477661,279.037262 155.286270,293.036163 182.234879,298.827972 
	C190.015457,300.500183 198.189041,300.852783 206.188660,300.907776 
	C238.509644,301.130127 270.834259,301.168213 303.155182,300.941101 
	C324.848877,300.788696 345.160248,317.404449 349.847382,338.450714 
	C353.998566,357.090363 350.188080,374.304962 335.636444,387.528595 
	C330.300476,392.377594 323.148041,395.228455 316.821075,398.985474 
	C316.027771,399.456512 315.214905,399.894592 314.705566,400.674011 
	C267.979095,401.000000 220.958206,401.000000 173.769135,400.640137 
	C173.101028,399.866791 172.635452,399.144928 172.096130,399.084839 
	C156.462036,397.343109 141.606369,392.815887 127.019203,387.064941 
	C96.856583,375.173340 71.219559,357.085480 49.939632,332.571106 
	C35.614059,316.068115 24.224216,297.895721 15.956893,277.701019 
	C10.526315,264.435699 6.232477,250.865768 3.916383,236.678055 
	C3.484188,234.030563 1.999153,231.554947 1.000000,229.000000 
	C1.000000,210.645767 1.000000,192.291550 1.423304,173.461884 
	C2.200062,172.724823 2.804956,172.514252 2.869987,172.194046 
	C4.282265,165.240356 5.368670,158.209839 7.043367,151.321899 
	C14.979069,118.682831 30.816975,90.164886 53.263718,65.396873 
	C65.702782,51.671448 80.057953,40.118660 95.967125,30.406286 
	C119.210449,16.216484 144.114563,6.935033 171.029663,2.927430 
	C171.765778,2.817824 172.346710,1.665885 173.000000,1.000000 
	C258.020905,1.000000 343.041779,1.000000 428.531342,1.000000 
z"/>
<path fill="#FFFFFF" opacity="1.000000" stroke="none" 
	d="
M523.468628,401.000000 
	C522.346497,400.334106 521.765442,399.182281 521.029114,399.072571 
	C494.110565,395.061737 469.201660,385.783325 445.957184,371.584656 
	C430.048187,361.866791 415.686523,350.317108 403.248810,336.586517 
	C380.805573,311.810333 365.271973,283.214172 356.893951,250.677689 
	C352.235016,232.584412 350.108093,214.329712 351.083466,195.761108 
	C351.810272,181.924789 358.493774,170.910156 368.920135,161.995148 
	C380.333496,152.236221 393.830292,149.591766 408.193512,151.109222 
	C420.771301,152.438065 431.193146,158.673737 439.488159,168.071594 
	C448.851898,178.680206 451.681641,191.763519 451.939850,205.427399 
	C452.340088,226.605972 459.758759,245.171234 472.366760,261.806183 
	C487.413391,281.658630 507.747559,293.433258 531.766418,298.749878 
	C539.530945,300.468567 547.710815,300.886963 555.703308,300.907684 
	C619.515015,301.073120 683.327820,301.152771 747.139099,300.913452 
	C768.197815,300.834473 788.178589,295.929688 805.930603,283.987213 
	C828.990295,268.474060 843.703491,246.846741 848.717346,219.767593 
	C853.552856,193.652084 849.002747,168.540970 833.968933,146.060928 
	C818.521606,122.962379 796.712891,108.963120 769.763916,103.171959 
	C761.983276,101.499939 753.809692,101.147255 745.810120,101.092232 
	C713.489075,100.869896 681.164429,100.832008 648.843445,101.058830 
	C627.149841,101.211067 606.838440,84.593399 602.152405,63.547894 
	C598.002014,44.907864 601.811768,27.693378 616.364624,14.470362 
	C621.700928,9.621724 628.853455,6.771197 635.180542,3.014484 
	C635.973450,2.543697 636.785645,2.105397 637.294434,1.326015 
	C684.020874,1.000000 731.041809,1.000000 778.230835,1.359876 
	C778.898804,2.133169 779.364258,2.855017 779.903503,2.915151 
	C795.535645,4.658421 810.340393,9.320039 824.989014,14.898189 
	C848.093811,23.696480 868.465393,36.839466 886.641663,53.314335 
	C900.360779,65.749405 911.908752,80.099663 921.615295,95.997154 
	C935.799011,119.227264 945.083191,144.122498 949.072632,171.031433 
	C949.181641,171.766724 950.334106,172.347305 951.000000,173.000000 
	C951.000000,191.354233 951.000000,209.708450 950.576721,228.538101 
	C949.799988,229.275085 949.195068,229.485565 949.130066,229.805725 
	C947.717834,236.759399 946.631226,243.789871 944.956482,250.677811 
	C937.020996,283.317047 921.183044,311.834991 898.736328,336.603088 
	C886.297241,350.328552 871.942078,361.881256 856.032898,371.593689 
	C832.789551,385.783569 807.885315,395.064941 780.970215,399.072510 
	C780.234131,399.182098 779.653259,400.334106 779.000000,401.000000 
	C693.979126,401.000000 608.958191,401.000000 523.468628,401.000000 
z"/>
<path fill="#000000" opacity="000000" stroke="none" 
	d="
M172.531342,1.000000 
	C172.346710,1.665885 171.765778,2.817824 171.029663,2.927430 
	C144.114563,6.935033 119.210449,16.216484 95.967125,30.406286 
	C80.057953,40.118660 65.702782,51.671448 53.263718,65.396873 
	C30.816975,90.164886 14.979069,118.682831 7.043367,151.321899 
	C5.368670,158.209839 4.282265,165.240356 2.869987,172.194046 
	C2.804956,172.514252 2.200062,172.724823 1.423304,172.993225 
	C1.000000,115.739647 1.000000,58.479294 1.000000,1.000000 
	C58.020706,1.000000 115.041695,1.000000 172.531342,1.000000 
z"/>
<path fill="#000000" opacity="000000" stroke="none" 
	d="
M951.000000,172.531342 
	C950.334106,172.347305 949.181641,171.766724 949.072632,171.031433 
	C945.083191,144.122498 935.799011,119.227264 921.615295,95.997154 
	C911.908752,80.099663 900.360779,65.749405 886.641663,53.314335 
	C868.465393,36.839466 848.093811,23.696480 824.989014,14.898189 
	C810.340393,9.320039 795.535645,4.658421 779.903503,2.915151 
	C779.364258,2.855017 778.898804,2.133169 778.699463,1.359876 
	C836.260315,1.000000 893.520691,1.000000 951.000000,1.000000 
	C951.000000,58.020706 951.000000,115.041695 951.000000,172.531342 
z"/>
<path fill="#000000" opacity="000000" stroke="none" 
	d="
M1.000000,229.468658 
	C1.999153,231.554947 3.484188,234.030563 3.916383,236.678055 
	C6.232477,250.865768 10.526315,264.435699 15.956893,277.701019 
	C24.224216,297.895721 35.614059,316.068115 49.939632,332.571106 
	C71.219559,357.085480 96.856583,375.173340 127.019203,387.064941 
	C141.606369,392.815887 156.462036,397.343109 172.096130,399.084839 
	C172.635452,399.144928 173.101028,399.866791 173.300476,400.640137 
	C115.739647,401.000000 58.479294,401.000000 1.000000,401.000000 
	C1.000000,343.979279 1.000000,286.958313 1.000000,229.468658 
z"/>
<path fill="#000000" opacity="000000" stroke="none" 
	d="
M779.468628,401.000000 
	C779.653259,400.334106 780.234131,399.182098 780.970215,399.072510 
	C807.885315,395.064941 832.789551,385.783569 856.032898,371.593689 
	C871.942078,361.881256 886.297241,350.328552 898.736328,336.603088 
	C921.183044,311.834991 937.020996,283.317047 944.956482,250.677811 
	C946.631226,243.789871 947.717834,236.759399 949.130066,229.805725 
	C949.195068,229.485565 949.799988,229.275085 950.576721,229.006760 
	C951.000000,286.260345 951.000000,343.520691 951.000000,401.000000 
	C893.979309,401.000000 836.958313,401.000000 779.468628,401.000000 
z"/>
</svg>