<svg version="1.1" id="Layer_1" xmlns="http://www.w3.org/2000/svg" xmlns:xlink="http://www.w3.org/1999/xlink" x="0px" y="0px"
	 width="150%" height="150%" viewBox="0 0 352 352" enable-background="new 0 0 352 352" xml:space="preserve">
<path fill="#000000" opacity="0" stroke="none" 
	d="
M166.000000,353.000000 
	C110.666679,353.000000 55.833351,353.000000 1.000022,353.000000 
	C1.000015,235.666702 1.000015,118.333397 1.000007,1.000069 
	C118.333282,1.000046 235.666565,1.000046 352.999878,1.000023 
	C352.999939,118.333260 352.999939,235.666519 352.999969,352.999878 
	C290.833344,353.000000 228.666672,353.000000 166.000000,353.000000 
M187.500000,241.000015 
	C199.917618,240.666687 212.341980,239.905487 224.751251,240.101212 
	C242.934998,240.387970 251.584244,228.305267 251.856644,213.206421 
	C252.358597,185.385422 252.273987,157.544647 251.844910,129.721207 
	C251.703064,120.523590 249.158524,111.269531 239.981445,106.770332 
	C234.645935,104.154541 228.360779,102.324509 222.462265,102.208473 
	C197.474869,101.716873 172.472092,101.958839 147.475311,102.044464 
	C143.734589,102.057274 139.969986,102.486839 136.260880,103.028229 
	C121.572441,105.172226 114.370621,115.502419 114.147400,128.748581 
	C113.667320,157.237152 113.709427,185.743912 114.151062,214.233734 
	C114.314804,224.796387 119.612770,236.093826 132.571808,239.025818 
	C137.448639,240.129227 142.512344,240.813751 147.506302,240.913101 
	C160.499634,241.171570 173.501526,241.000000 187.500000,241.000015 
z"/>
<path fill="#FFFFFF" opacity="1.000000" stroke="none" 
	d="
M187.000000,241.000000 
	C173.501526,241.000000 160.499634,241.171570 147.506302,240.913101 
	C142.512344,240.813751 137.448639,240.129227 132.571808,239.025818 
	C119.612770,236.093826 114.314804,224.796387 114.151062,214.233734 
	C113.709427,185.743912 113.667320,157.237152 114.147400,128.748581 
	C114.370621,115.502419 121.572441,105.172226 136.260880,103.028229 
	C139.969986,102.486839 143.734589,102.057274 147.475311,102.044464 
	C172.472092,101.958839 197.474869,101.716873 222.462265,102.208473 
	C228.360779,102.324509 234.645935,104.154541 239.981445,106.770332 
	C249.158524,111.269531 251.703064,120.523590 251.844910,129.721207 
	C252.273987,157.544647 252.358597,185.385422 251.856644,213.206421 
	C251.584244,228.305267 242.934998,240.387970 224.751251,240.101212 
	C212.341980,239.905487 199.917618,240.666687 187.000000,241.000000 
M204.499969,122.000000 
	C183.672577,122.000000 162.845169,121.988297 142.017792,122.007195 
	C135.840195,122.012802 133.012375,124.810226 133.008072,130.942947 
	C132.989304,157.768723 132.981537,184.594513 133.014206,211.420258 
	C133.021515,217.413025 136.599564,220.979385 142.602875,220.986343 
	C169.595230,221.017624 196.588364,221.106766 223.579544,220.926041 
	C230.459579,220.879959 232.893936,218.803162 232.937225,211.432419 
	C233.095718,184.440964 233.018845,157.447968 232.984329,130.455627 
	C232.977295,124.951836 230.024109,122.059906 224.494476,122.012566 
	C218.163391,121.958366 211.831482,122.000000 204.499969,122.000000 
z"/>
<path fill="#000000" opacity="000000" stroke="none" 
	d="
M204.999954,122.000000 
	C211.831482,122.000000 218.163391,121.958366 224.494476,122.012566 
	C230.024109,122.059906 232.977295,124.951836 232.984329,130.455627 
	C233.018845,157.447968 233.095718,184.440964 232.937225,211.432419 
	C232.893936,218.803162 230.459579,220.879959 223.579544,220.926041 
	C196.588364,221.106766 169.595230,221.017624 142.602875,220.986343 
	C136.599564,220.979385 133.021515,217.413025 133.014206,211.420258 
	C132.981537,184.594513 132.989304,157.768723 133.008072,130.942947 
	C133.012375,124.810226 135.840195,122.012802 142.017792,122.007195 
	C162.845169,121.988297 183.672577,122.000000 204.999954,122.000000 
z"/>
</svg>