<svg version="1.1" id="Layer_1" xmlns="http://www.w3.org/2000/svg" xmlns:xlink="http://www.w3.org/1999/xlink" x="0px" y="0px"
	 width="32" viewBox="0 0 800 800" enable-background="new 0 0 800 800" xml:space="preserve">
<path fill-opacity="0" opacity="1.000000" stroke="none" 
	d="
M452.000000,801.000000 
	C301.333344,801.000000 151.166672,801.000000 1.000000,801.000000 
	C1.000000,534.333313 1.000000,267.666656 1.000000,1.000000 
	C267.666656,1.000000 534.333313,1.000000 801.000000,1.000000 
	C801.000000,267.666656 801.000000,534.333313 801.000000,801.000000 
	C684.833313,801.000000 568.666687,801.000000 452.000000,801.000000 
M86.500252,578.476562 
    C72.836098,578.476929 59.170437,578.356628 45.508392,578.526855 
	C38.292797,578.616699 33.013214,583.763062 33.155155,589.977539 
	C33.286400,595.723816 38.503311,599.819092 45.783295,599.833984 
	C56.281666,599.855469 66.780708,599.777832 77.278244,599.874817 
	C81.659973,599.915344 85.228378,603.201477 86.218269,607.705200 
	C87.213501,612.233398 85.452011,615.597717 81.408569,617.457275 
	C79.551773,618.311218 77.242134,618.382874 75.127808,618.440430 
	C64.164047,618.739014 53.159107,618.437744 42.243767,619.299133 
	C34.213528,619.932861 30.385611,630.398315 36.033573,636.049622 
	C38.289646,638.307068 42.463757,639.631042 45.788685,639.677734 
	C67.947647,639.989014 90.113075,639.832947 112.276398,639.844055 
	C118.903618,639.847412 123.154518,643.808228 123.151543,649.915405 
	C123.148949,655.243713 119.445007,658.387756 112.656693,658.448120 
	C101.325958,658.548950 89.993073,658.406189 78.662308,658.505188 
	C72.694046,658.557312 66.729500,658.948181 60.761139,659.104492 
	C55.774254,659.235229 53.976116,662.831055 52.101685,666.592896 
	C49.978836,670.853271 52.114029,674.442993 54.804108,676.687378 
	C57.190239,678.678284 61.083874,679.702087 64.316910,679.713074 
	C116.808395,679.890991 169.300659,679.837646 221.792740,679.841614 
	C228.877502,679.842163 233.159866,683.659668 233.151672,689.931580 
	C233.144470,695.446899 229.326523,698.460693 222.207550,698.469971 
	C206.043350,698.490967 189.879105,698.476562 173.714874,698.476562 
	C162.049973,698.476562 150.381561,698.321289 138.722565,698.583801 
	C135.738174,698.651062 132.378815,699.399841 129.906540,700.964783 
	C125.817314,703.553101 124.079987,707.832336 125.445137,712.704529 
	C126.693726,717.160706 131.623611,719.833984 137.878098,719.835022 
	C190.870102,719.843445 243.862122,719.835266 296.854126,719.851440 
	C302.805542,719.853271 306.751343,723.632629 307.141479,729.550354 
	C307.412231,733.656982 303.999969,736.926819 298.932953,738.441345 
	C296.428162,739.190002 293.877686,740.776428 292.080322,742.676575 
	C289.149139,745.775269 289.494232,749.732849 291.301636,753.322266 
	C293.661987,758.009766 297.627533,759.898315 302.954681,759.891663 
	C368.278076,759.810669 433.601593,759.838989 498.925079,759.839111 
	C499.424988,759.839111 499.925415,759.853760 500.424774,759.837219 
	C506.549347,759.634155 511.252838,755.429260 511.842010,749.635437 
	C512.427124,743.881470 508.992767,739.940308 502.593872,738.319397 
	C500.546600,737.800842 498.358307,736.528259 496.987396,734.947632 
	C494.744934,732.362061 493.991791,729.266357 495.868530,725.823730 
	C498.022583,721.872375 500.719147,719.742554 505.599518,719.755310 
	C558.091248,719.892456 610.583496,719.839783 663.075562,719.839050 
	C664.242065,719.839050 665.412720,719.904053 666.574280,719.828369 
	C671.807190,719.487610 676.439209,715.421387 676.846863,710.856018 
	C677.314026,705.623108 673.933350,700.573853 668.767639,699.207336 
	C666.718994,698.665344 664.517944,698.518188 662.384583,698.507080 
	C650.220093,698.444153 638.055115,698.476624 625.890259,698.476562 
	C610.225952,698.476562 594.561462,698.520508 578.897400,698.456299 
	C571.881104,698.427551 568.024353,694.319824 568.852783,688.035522 
	C569.482361,683.259644 573.851318,679.846558 579.448120,679.845581 
	C631.940186,679.836304 684.432312,679.839417 736.924377,679.838928 
	C738.090881,679.838928 739.265381,679.927002 740.422546,679.822571 
	C748.033081,679.135620 753.787964,671.108643 748.627991,663.610535 
	C745.685059,659.333984 741.603943,658.485291 736.989258,658.481628 
	C720.991638,658.468750 704.993958,658.511780 688.996521,658.459351 
	C682.462036,658.437988 678.796692,655.122620 678.850464,649.539001 
	C678.903992,643.985413 683.190002,639.877686 689.061157,639.849854 
	C696.893127,639.812744 704.725403,639.839050 712.557556,639.838989 
	C727.388672,639.838806 742.220032,639.894409 757.050659,639.806274 
	C761.580933,639.779358 765.441345,638.195251 767.726074,633.890320 
	C770.023376,629.561584 768.732544,625.334290 765.640930,622.631165 
	C763.049500,620.365234 759.024536,618.842957 755.545837,618.658447 
	C745.741577,618.138245 735.889648,618.586060 726.061462,618.396118 
	C723.728455,618.351074 721.057617,617.845032 719.168884,616.600159 
	C715.586121,614.238770 714.620483,610.310913 716.187866,606.442810 
	C717.797485,602.470520 720.698120,599.742004 725.584717,599.800903 
	C736.414856,599.931641 747.248291,599.912109 758.079041,599.809814 
	C763.544128,599.758179 768.427063,595.535645 768.844727,590.845886 
	C769.314575,585.570007 765.676025,580.418091 760.284607,579.179504 
	C757.895325,578.630554 755.365845,578.503723 752.899963,578.503418 
	C531.100037,578.474487 309.300171,578.476624 86.500252,578.476562 
M768.528137,509.500305 
	C768.528137,443.168335 768.576416,376.836304 768.456421,310.504547 
	C768.443848,303.574432 767.931152,296.564423 766.804871,289.730835 
	C761.397766,256.923737 744.646362,231.074951 716.765015,213.244385 
	C692.652466,197.824112 667.651917,183.793823 643.066223,169.111649 
	C619.654297,155.130447 596.287415,141.073807 572.871704,127.098846 
	C538.763672,106.742470 504.340942,86.894493 470.602173,65.944382 
	C445.640259,50.444283 419.863129,39.644657 389.715698,43.101955 
	C374.571625,44.838680 360.301788,49.053364 347.171112,56.811886 
	C325.639771,69.534103 304.175293,82.369576 282.687958,95.166206 
	C247.938568,115.860947 213.190094,136.557251 178.447617,157.263580 
	C148.762497,174.955765 119.109695,192.702347 89.398659,210.350876 
	C66.604942,223.890488 50.879131,243.239563 41.046757,267.755310 
	C35.346512,281.968140 33.508804,296.725769 33.498466,311.809723 
	C33.442368,393.640808 33.471836,475.472015 33.471836,557.303162 
	C33.471836,558.136475 33.563694,558.981812 33.456436,559.801086 
	C32.898792,564.060730 34.468891,565.746887 38.998837,565.619629 
	C49.323746,565.329590 59.662407,565.539246 69.995407,565.515442 
	C71.454773,565.512085 72.913750,565.338318 74.842041,565.212952 
	C74.842041,562.919189 74.842033,560.964905 74.842033,559.010620 
	C74.842033,477.179474 74.920059,395.348114 74.742920,313.517365 
	C74.720879,303.333923 75.642830,293.519440 79.910507,284.237793 
	C86.209663,270.537964 93.413628,257.289032 106.095703,248.428345 
	C114.778641,242.361755 124.210396,237.364212 133.326706,231.921097 
	C164.684372,213.198242 196.045212,194.480652 227.414810,175.777802 
	C266.976776,152.190567 306.534698,128.596405 346.127014,105.060181 
	C354.851929,99.873543 363.333008,94.025085 372.603516,90.067772 
	C386.027161,84.337585 400.506348,83.725006 414.821838,86.068314 
	C421.535858,87.167343 428.629700,88.880730 434.412903,92.262611 
	C476.765808,117.029503 518.845154,142.264664 560.980469,167.402893 
	C598.612671,189.854492 636.218079,212.350952 673.807312,234.874329 
	C682.235718,239.924545 691.687683,243.959534 698.691040,250.559952 
	C716.874023,267.696777 727.684814,288.514984 727.586060,314.519806 
	C727.275757,396.183136 727.471863,477.848389 727.471863,559.512878 
	C727.471863,561.425903 727.471863,563.338867 727.471863,565.203369 
	C741.558838,565.203369 754.812378,565.203369 768.528137,565.203369 
	C768.528137,546.755188 768.528137,528.627747 768.528137,509.500305 
M292.499817,565.518677 
	C371.125977,565.518738 449.752136,565.512329 528.378296,565.545593 
	C531.091980,565.546753 533.337036,565.591187 534.793640,562.481567 
	C543.198120,544.538940 548.361084,525.703796 549.736389,505.990906 
	C550.765869,491.234924 549.320435,476.560913 545.860168,462.111572 
	C540.255798,438.709229 529.621216,417.781006 513.920593,399.695221 
	C498.737061,382.205078 480.462952,368.541382 458.910492,359.629211 
	C442.384369,352.795502 425.295288,348.077209 407.280518,348.256348 
	C396.895966,348.359619 386.472809,349.059967 376.153809,350.246399 
	C359.793640,352.127441 344.551575,358.015259 330.171326,365.709991 
	C315.137848,373.754303 301.963013,384.385284 290.422089,397.072479 
	C278.770416,409.881470 269.762421,424.372528 263.286652,440.257904 
	C252.884827,465.774078 249.650162,492.236816 254.017426,519.682434 
	C256.421539,534.790833 260.967712,549.050110 267.615295,562.701782 
	C268.265625,564.037354 270.473755,565.321655 272.015656,565.392578 
	C278.498596,565.690674 285.003174,565.518677 292.499817,565.518677 
M350.176270,287.274780 
	C350.456635,288.052734 350.870605,288.809601 350.997223,289.611816 
	C352.739838,300.652588 354.383575,311.709686 356.254059,322.728394 
	C356.427277,323.748657 358.095612,325.395020 358.873260,325.290436 
	C364.057190,324.593109 369.158417,322.899261 374.341034,322.646454 
	C389.341370,321.914703 404.381104,321.149292 419.378143,321.514313 
	C428.067596,321.725800 436.704712,324.089508 445.467773,325.501160 
	C446.493866,319.692383 447.561462,314.063324 448.472321,308.409027 
	C450.635864,294.977722 452.714020,281.532715 454.847839,268.096619 
	C456.672760,256.605499 458.505615,245.115601 460.374207,233.631546 
	C462.508118,220.516953 464.734772,207.417297 466.829254,194.296509 
	C468.717773,182.465820 470.198090,170.560593 472.462280,158.804535 
	C473.210999,154.917053 472.210876,152.902618 469.183716,151.146652 
	C464.513855,148.437881 459.773804,145.833694 455.235229,142.917816 
	C429.125732,126.143318 401.078156,123.182289 371.545532,131.176025 
	C356.498322,135.248917 344.341248,145.031418 330.997467,152.444412 
	C329.908997,153.049118 329.399567,155.882645 329.649902,157.523529 
	C331.678497,170.819260 333.982391,184.072678 336.145081,197.348328 
	C338.732300,213.229660 341.302521,229.113983 343.805878,245.008698 
	C345.976990,258.793701 348.044617,272.594971 350.176270,287.274780 
M609.607971,277.079529 
	C583.763916,310.840759 557.919861,344.602020 532.051880,378.394562 
	C544.589417,392.477234 554.270264,407.977783 562.083191,424.697723 
	C565.617798,432.261871 565.667358,432.173706 572.510864,426.915283 
	C599.499207,406.177643 626.519409,385.481415 653.514343,364.752289 
	C668.963501,352.889069 684.386780,340.992126 700.815430,328.345367 
	C696.520691,318.256439 692.742004,307.822540 687.737244,298.014282 
	C681.385071,285.565552 672.439636,274.888611 661.007446,266.733276 
	C652.647339,260.769379 643.666809,255.680038 635.031128,250.095139 
	C631.863342,248.046432 630.437317,249.949951 628.737610,252.198380 
	C622.574158,260.351746 616.296875,268.419037 609.607971,277.079529 
M156.070145,256.618744 
	C129.432892,270.619568 113.506081,293.218903 104.149956,321.142792 
	C102.478645,326.130920 102.379120,329.606812 107.623978,333.377563 
	C123.427582,344.739380 138.577927,357.008118 154.018982,368.876373 
	C167.374329,379.141541 180.792267,389.325195 194.157867,399.577057 
	C207.272781,409.636627 220.350220,419.745026 233.460419,429.810760 
	C235.609650,431.460938 237.507660,431.274506 238.578796,428.578125 
	C245.544006,411.044556 255.600876,395.418945 267.851440,381.160004 
	C269.476044,379.269073 269.691315,377.770233 268.107208,375.720062 
	C255.878128,359.892944 243.724014,344.007843 231.549240,328.138733 
	C215.471939,307.182953 199.411545,286.214172 183.311325,265.275970 
	C178.936600,259.586731 174.444733,253.987610 170.057220,248.411392 
	C165.177490,251.240479 160.922409,253.707428 156.070145,256.618744 
M655.453247,419.035492 
	C654.052002,419.851410 652.643921,420.655731 651.250671,421.485016 
	C626.816345,436.028473 602.416443,450.630402 577.905518,465.043610 
	C575.156067,466.660400 574.943298,468.472137 575.336365,471.130463 
	C576.058655,476.016052 576.964661,480.925110 577.077759,485.840851 
	C577.446960,501.899292 577.431091,517.942688 573.242615,533.672729 
	C572.187378,537.635559 574.467651,539.228271 578.584167,538.034668 
	C591.509338,534.287415 604.437073,530.548035 617.385681,526.882874 
	C643.811707,519.402832 670.239990,511.930145 696.701660,504.577515 
	C699.967712,503.670044 700.960815,502.188812 700.944153,498.722565 
	C700.781616,464.907074 700.850403,431.090515 700.832397,397.274261 
	C700.831665,395.890320 700.625061,394.506500 700.442688,392.226074 
	C685.194092,401.295044 670.632080,409.955627 655.453247,419.035492 
M190.650681,528.828918 
	C201.392120,531.846008 212.122314,534.904297 222.887085,537.835693 
	C224.514297,538.278931 227.380371,538.793457 227.793732,538.120361 
	C228.680054,536.677368 228.649857,534.446228 228.447937,532.597534 
	C227.338974,522.443848 225.307205,512.326904 225.055206,502.161102 
	C224.789871,491.457306 226.282120,480.717133 226.711212,469.981049 
	C226.773788,468.415100 225.614349,466.124542 224.306534,465.295868 
	C218.505829,461.620544 212.388565,458.450256 206.487396,454.927155 
	C172.671661,434.738373 138.887390,414.496918 105.076851,394.299438 
	C104.025146,393.671204 102.803413,393.327606 101.153496,392.639771 
	C101.153496,395.115753 101.153496,396.936279 101.153496,398.756805 
	C101.153496,431.069275 101.318077,463.383331 101.000381,495.692688 
	C100.943817,501.444855 102.164841,504.761261 108.177155,505.283081 
	C108.650429,505.324158 109.089996,505.664001 109.564026,505.798889 
	C136.324707,513.415649 163.087402,521.025391 190.650681,528.828918 
M245.726883,294.808044 
	C258.904358,317.524414 272.081818,340.240784 285.375061,363.156799 
	C286.686249,362.216827 287.592316,361.509277 288.553589,360.886993 
	C300.687317,353.032043 312.664703,344.912994 325.081146,337.532959 
	C328.287537,335.627106 329.301697,334.644257 328.275360,330.985840 
	C323.312622,313.296143 318.633545,295.526642 313.891724,277.775360 
	C305.551788,246.554138 297.251953,215.322205 288.882629,184.108871 
	C288.404510,182.325714 287.453033,180.669479 286.611542,178.695312 
	C260.623291,194.292801 235.248932,209.600327 209.757172,224.709732 
	C206.958160,226.368790 206.954254,227.372787 208.473740,229.991486 
	C220.855728,251.330795 233.058487,272.774109 245.726883,294.808044 
M519.964844,357.521149 
	C545.128479,313.982849 570.292114,270.444519 595.581360,226.688858 
	C568.404236,210.485687 542.071533,194.786011 515.365173,178.863556 
	C514.577820,180.454315 513.614624,181.807312 513.209351,183.310730 
	C509.128479,198.447998 505.167664,213.617523 501.118011,228.763275 
	C492.470215,261.106018 483.781647,293.437897 475.136932,325.781464 
	C474.376129,328.627869 472.584045,332.039154 473.506378,334.259460 
	C474.435669,336.496552 478.156250,337.571136 480.646240,339.166901 
	C480.921631,339.343353 481.122833,339.636475 481.399658,339.809692 
	C493.182587,347.184357 504.970184,354.551544 517.018372,362.082886 
	C517.547913,361.361359 518.692261,359.802124 519.964844,357.521149 
z"/>
<path fill="#FDFDFD" opacity="1.000000" stroke="none" 
	d="
M87.000259,578.476562 
	C309.300171,578.476624 531.100037,578.474487 752.899963,578.503418 
	C755.365845,578.503723 757.895325,578.630554 760.284607,579.179504 
	C765.676025,580.418091 769.314575,585.570007 768.844727,590.845886 
	C768.427063,595.535645 763.544128,599.758179 758.079041,599.809814 
	C747.248291,599.912109 736.414856,599.931641 725.584717,599.800903 
	C720.698120,599.742004 717.797485,602.470520 716.187866,606.442810 
	C714.620483,610.310913 715.586121,614.238770 719.168884,616.600159 
	C721.057617,617.845032 723.728455,618.351074 726.061462,618.396118 
	C735.889648,618.586060 745.741577,618.138245 755.545837,618.658447 
	C759.024536,618.842957 763.049500,620.365234 765.640930,622.631165 
	C768.732544,625.334290 770.023376,629.561584 767.726074,633.890320 
	C765.441345,638.195251 761.580933,639.779358 757.050659,639.806274 
	C742.220032,639.894409 727.388672,639.838806 712.557556,639.838989 
	C704.725403,639.839050 696.893127,639.812744 689.061157,639.849854 
	C683.190002,639.877686 678.903992,643.985413 678.850464,649.539001 
	C678.796692,655.122620 682.462036,658.437988 688.996521,658.459351 
	C704.993958,658.511780 720.991638,658.468750 736.989258,658.481628 
	C741.603943,658.485291 745.685059,659.333984 748.627991,663.610535 
	C753.787964,671.108643 748.033081,679.135620 740.422546,679.822571 
	C739.265381,679.927002 738.090881,679.838928 736.924377,679.838928 
	C684.432312,679.839417 631.940186,679.836304 579.448120,679.845581 
	C573.851318,679.846558 569.482361,683.259644 568.852783,688.035522 
	C568.024353,694.319824 571.881104,698.427551 578.897400,698.456299 
	C594.561462,698.520508 610.225952,698.476562 625.890259,698.476562 
	C638.055115,698.476624 650.220093,698.444153 662.384583,698.507080 
	C664.517944,698.518188 666.718994,698.665344 668.767639,699.207336 
	C673.933350,700.573853 677.314026,705.623108 676.846863,710.856018 
	C676.439209,715.421387 671.807190,719.487610 666.574280,719.828369 
	C665.412720,719.904053 664.242065,719.839050 663.075562,719.839050 
	C610.583496,719.839783 558.091248,719.892456 505.599518,719.755310 
	C500.719147,719.742554 498.022583,721.872375 495.868530,725.823730 
	C493.991791,729.266357 494.744934,732.362061 496.987396,734.947632 
	C498.358307,736.528259 500.546600,737.800842 502.593872,738.319397 
	C508.992767,739.940308 512.427124,743.881470 511.842010,749.635437 
	C511.252838,755.429260 506.549347,759.634155 500.424774,759.837219 
	C499.925415,759.853760 499.424988,759.839111 498.925079,759.839111 
	C433.601593,759.838989 368.278076,759.810669 302.954681,759.891663 
	C297.627533,759.898315 293.661987,758.009766 291.301636,753.322266 
	C289.494232,749.732849 289.149139,745.775269 292.080322,742.676575 
	C293.877686,740.776428 296.428162,739.190002 298.932953,738.441345 
	C303.999969,736.926819 307.412231,733.656982 307.141479,729.550354 
	C306.751343,723.632629 302.805542,719.853271 296.854126,719.851440 
	C243.862122,719.835266 190.870102,719.843445 137.878098,719.835022 
	C131.623611,719.833984 126.693726,717.160706 125.445137,712.704529 
	C124.079987,707.832336 125.817314,703.553101 129.906540,700.964783 
	C132.378815,699.399841 135.738174,698.651062 138.722565,698.583801 
	C150.381561,698.321289 162.049973,698.476562 173.714874,698.476562 
	C189.879105,698.476562 206.043350,698.490967 222.207550,698.469971 
	C229.326523,698.460693 233.144470,695.446899 233.151672,689.931580 
	C233.159866,683.659668 228.877502,679.842163 221.792740,679.841614 
	C169.300659,679.837646 116.808395,679.890991 64.316910,679.713074 
	C61.083874,679.702087 57.190239,678.678284 54.804108,676.687378 
	C52.114029,674.442993 49.978836,670.853271 52.101685,666.592896 
	C53.976116,662.831055 55.774254,659.235229 60.761139,659.104492 
	C66.729500,658.948181 72.694046,658.557312 78.662308,658.505188 
	C89.993073,658.406189 101.325958,658.548950 112.656693,658.448120 
	C119.445007,658.387756 123.148949,655.243713 123.151543,649.915405 
	C123.154518,643.808228 118.903618,639.847412 112.276398,639.844055 
	C90.113075,639.832947 67.947647,639.989014 45.788685,639.677734 
	C42.463757,639.631042 38.289646,638.307068 36.033573,636.049622 
	C30.385611,630.398315 34.213528,619.932861 42.243767,619.299133 
	C53.159107,618.437744 64.164047,618.739014 75.127808,618.440430 
	C77.242134,618.382874 79.551773,618.311218 81.408569,617.457275 
	C85.452011,615.597717 87.213501,612.233398 86.218269,607.705200 
	C85.228378,603.201477 81.659973,599.915344 77.278244,599.874817 
	C66.780708,599.777832 56.281666,599.855469 45.783295,599.833984 
	C38.503311,599.819092 33.286400,595.723816 33.155155,589.977539 
	C33.013214,583.763062 38.292797,578.616699 45.508392,578.526855 
	C59.170437,578.356628 72.836098,578.476929 87.000259,578.476562 
z"/>
<path fill="#FBFBFB" opacity="1.000000" stroke="none" 
	d="
M768.528137,510.000305 
	C768.528137,528.627747 768.528137,546.755188 768.528137,565.203369 
	C754.812378,565.203369 741.558838,565.203369 727.471863,565.203369 
	C727.471863,563.338867 727.471863,561.425903 727.471863,559.512878 
	C727.471863,477.848389 727.275757,396.183136 727.586060,314.519806 
	C727.684814,288.514984 716.874023,267.696777 698.691040,250.559952 
	C691.687683,243.959534 682.235718,239.924545 673.807312,234.874329 
	C636.218079,212.350952 598.612671,189.854492 560.980469,167.402893 
	C518.845154,142.264664 476.765808,117.029503 434.412903,92.262611 
	C428.629700,88.880730 421.535858,87.167343 414.821838,86.068314 
	C400.506348,83.725006 386.027161,84.337585 372.603516,90.067772 
	C363.333008,94.025085 354.851929,99.873543 346.127014,105.060181 
	C306.534698,128.596405 266.976776,152.190567 227.414810,175.777802 
	C196.045212,194.480652 164.684372,213.198242 133.326706,231.921097 
	C124.210396,237.364212 114.778641,242.361755 106.095703,248.428345 
	C93.413628,257.289032 86.209663,270.537964 79.910507,284.237793 
	C75.642830,293.519440 74.720879,303.333923 74.742920,313.517365 
	C74.920059,395.348114 74.842033,477.179474 74.842033,559.010620 
	C74.842033,560.964905 74.842041,562.919189 74.842041,565.212952 
	C72.913750,565.338318 71.454773,565.512085 69.995407,565.515442 
	C59.662407,565.539246 49.323746,565.329590 38.998837,565.619629 
	C34.468891,565.746887 32.898792,564.060730 33.456436,559.801086 
	C33.563694,558.981812 33.471836,558.136475 33.471836,557.303162 
	C33.471836,475.472015 33.442368,393.640808 33.498466,311.809723 
	C33.508804,296.725769 35.346512,281.968140 41.046757,267.755310 
	C50.879131,243.239563 66.604942,223.890488 89.398659,210.350876 
	C119.109695,192.702347 148.762497,174.955765 178.447617,157.263580 
	C213.190094,136.557251 247.938568,115.860947 282.687958,95.166206 
	C304.175293,82.369576 325.639771,69.534103 347.171112,56.811886 
	C360.301788,49.053364 374.571625,44.838680 389.715698,43.101955 
	C419.863129,39.644657 445.640259,50.444283 470.602173,65.944382 
	C504.340942,86.894493 538.763672,106.742470 572.871704,127.098846 
	C596.287415,141.073807 619.654297,155.130447 643.066223,169.111649 
	C667.651917,183.793823 692.652466,197.824112 716.765015,213.244385 
	C744.646362,231.074951 761.397766,256.923737 766.804871,289.730835 
	C767.931152,296.564423 768.443848,303.574432 768.456421,310.504547 
	C768.576416,376.836304 768.528137,443.168335 768.528137,510.000305 
z"/>
<path fill="#FEFEFE" opacity="1.000000" stroke="none" 
	d="
M291.999817,565.518677 
	C285.003174,565.518677 278.498596,565.690674 272.015656,565.392578 
	C270.473755,565.321655 268.265625,564.037354 267.615295,562.701782 
	C260.967712,549.050110 256.421539,534.790833 254.017426,519.682434 
	C249.650162,492.236816 252.884827,465.774078 263.286652,440.257904 
	C269.762421,424.372528 278.770416,409.881470 290.422089,397.072479 
	C301.963013,384.385284 315.137848,373.754303 330.171326,365.709991 
	C344.551575,358.015259 359.793640,352.127441 376.153809,350.246399 
	C386.472809,349.059967 396.895966,348.359619 407.280518,348.256348 
	C425.295288,348.077209 442.384369,352.795502 458.910492,359.629211 
	C480.462952,368.541382 498.737061,382.205078 513.920593,399.695221 
	C529.621216,417.781006 540.255798,438.709229 545.860168,462.111572 
	C549.320435,476.560913 550.765869,491.234924 549.736389,505.990906 
	C548.361084,525.703796 543.198120,544.538940 534.793640,562.481567 
	C533.337036,565.591187 531.091980,565.546753 528.378296,565.545593 
	C449.752136,565.512329 371.125977,565.518738 291.999817,565.518677 
z"/>
<path fill="#FDFDFD" opacity="1.000000" stroke="none" 
	d="
M350.167114,286.831909 
	C348.044617,272.594971 345.976990,258.793701 343.805878,245.008698 
	C341.302521,229.113983 338.732300,213.229660 336.145081,197.348328 
	C333.982391,184.072678 331.678497,170.819260 329.649902,157.523529 
	C329.399567,155.882645 329.908997,153.049118 330.997467,152.444412 
	C344.341248,145.031418 356.498322,135.248917 371.545532,131.176025 
	C401.078156,123.182289 429.125732,126.143318 455.235229,142.917816 
	C459.773804,145.833694 464.513855,148.437881 469.183716,151.146652 
	C472.210876,152.902618 473.210999,154.917053 472.462280,158.804535 
	C470.198090,170.560593 468.717773,182.465820 466.829254,194.296509 
	C464.734772,207.417297 462.508118,220.516953 460.374207,233.631546 
	C458.505615,245.115601 456.672760,256.605499 454.847839,268.096619 
	C452.714020,281.532715 450.635864,294.977722 448.472321,308.409027 
	C447.561462,314.063324 446.493866,319.692383 445.467773,325.501160 
	C436.704712,324.089508 428.067596,321.725800 419.378143,321.514313 
	C404.381104,321.149292 389.341370,321.914703 374.341034,322.646454 
	C369.158417,322.899261 364.057190,324.593109 358.873260,325.290436 
	C358.095612,325.395020 356.427277,323.748657 356.254059,322.728394 
	C354.383575,311.709686 352.739838,300.652588 350.997223,289.611816 
	C350.870605,288.809601 350.456635,288.052734 350.167114,286.831909 
z"/>
<path fill="#FDFDFD" opacity="1.000000" stroke="none" 
	d="
M609.835205,276.799194 
	C616.296875,268.419037 622.574158,260.351746 628.737610,252.198380 
	C630.437317,249.949951 631.863342,248.046432 635.031128,250.095139 
	C643.666809,255.680038 652.647339,260.769379 661.007446,266.733276 
	C672.439636,274.888611 681.385071,285.565552 687.737244,298.014282 
	C692.742004,307.822540 696.520691,318.256439 700.815430,328.345367 
	C684.386780,340.992126 668.963501,352.889069 653.514343,364.752289 
	C626.519409,385.481415 599.499207,406.177643 572.510864,426.915283 
	C565.667358,432.173706 565.617798,432.261871 562.083191,424.697723 
	C554.270264,407.977783 544.589417,392.477234 532.051880,378.394562 
	C557.919861,344.602020 583.763916,310.840759 609.835205,276.799194 
z"/>
<path fill="#FEFEFE" opacity="1.000000" stroke="none" 
	d="
M156.368744,256.396545 
	C160.922409,253.707428 165.177490,251.240479 170.057220,248.411392 
	C174.444733,253.987610 178.936600,259.586731 183.311325,265.275970 
	C199.411545,286.214172 215.471939,307.182953 231.549240,328.138733 
	C243.724014,344.007843 255.878128,359.892944 268.107208,375.720062 
	C269.691315,377.770233 269.476044,379.269073 267.851440,381.160004 
	C255.600876,395.418945 245.544006,411.044556 238.578796,428.578125 
	C237.507660,431.274506 235.609650,431.460938 233.460419,429.810760 
	C220.350220,419.745026 207.272781,409.636627 194.157867,399.577057 
	C180.792267,389.325195 167.374329,379.141541 154.018982,368.876373 
	C138.577927,357.008118 123.427582,344.739380 107.623978,333.377563 
	C102.379120,329.606812 102.478645,326.130920 104.149956,321.142792 
	C113.506081,293.218903 129.432892,270.619568 156.368744,256.396545 
z"/>
<path fill="#FDFDFD" opacity="1.000000" stroke="none" 
	d="
M655.761719,418.825867 
	C670.632080,409.955627 685.194092,401.295044 700.442688,392.226074 
	C700.625061,394.506500 700.831665,395.890320 700.832397,397.274261 
	C700.850403,431.090515 700.781616,464.907074 700.944153,498.722565 
	C700.960815,502.188812 699.967712,503.670044 696.701660,504.577515 
	C670.239990,511.930145 643.811707,519.402832 617.385681,526.882874 
	C604.437073,530.548035 591.509338,534.287415 578.584167,538.034668 
	C574.467651,539.228271 572.187378,537.635559 573.242615,533.672729 
	C577.431091,517.942688 577.446960,501.899292 577.077759,485.840851 
	C576.964661,480.925110 576.058655,476.016052 575.336365,471.130463 
	C574.943298,468.472137 575.156067,466.660400 577.905518,465.043610 
	C602.416443,450.630402 626.816345,436.028473 651.250671,421.485016 
	C652.643921,420.655731 654.052002,419.851410 655.761719,418.825867 
z"/>
<path fill="#FDFDFD" opacity="1.000000" stroke="none" 
	d="
M190.250290,528.732300 
	C163.087402,521.025391 136.324707,513.415649 109.564026,505.798889 
	C109.089996,505.664001 108.650429,505.324158 108.177155,505.283081 
	C102.164841,504.761261 100.943817,501.444855 101.000381,495.692688 
	C101.318077,463.383331 101.153496,431.069275 101.153496,398.756805 
	C101.153496,396.936279 101.153496,395.115753 101.153496,392.639771 
	C102.803413,393.327606 104.025146,393.671204 105.076851,394.299438 
	C138.887390,414.496918 172.671661,434.738373 206.487396,454.927155 
	C212.388565,458.450256 218.505829,461.620544 224.306534,465.295868 
	C225.614349,466.124542 226.773788,468.415100 226.711212,469.981049 
	C226.282120,480.717133 224.789871,491.457306 225.055206,502.161102 
	C225.307205,512.326904 227.338974,522.443848 228.447937,532.597534 
	C228.649857,534.446228 228.680054,536.677368 227.793732,538.120361 
	C227.380371,538.793457 224.514297,538.278931 222.887085,537.835693 
	C212.122314,534.904297 201.392120,531.846008 190.250290,528.732300 
z"/>
<path fill="#FDFDFD" opacity="1.000000" stroke="none" 
	d="
M245.521332,294.496887 
	C233.058487,272.774109 220.855728,251.330795 208.473740,229.991486 
	C206.954254,227.372787 206.958160,226.368790 209.757172,224.709732 
	C235.248932,209.600327 260.623291,194.292801 286.611542,178.695312 
	C287.453033,180.669479 288.404510,182.325714 288.882629,184.108871 
	C297.251953,215.322205 305.551788,246.554138 313.891724,277.775360 
	C318.633545,295.526642 323.312622,313.296143 328.275360,330.985840 
	C329.301697,334.644257 328.287537,335.627106 325.081146,337.532959 
	C312.664703,344.912994 300.687317,353.032043 288.553589,360.886993 
	C287.592316,361.509277 286.686249,362.216827 285.375061,363.156799 
	C272.081818,340.240784 258.904358,317.524414 245.521332,294.496887 
z"/>
<path fill="#FDFDFD" opacity="1.000000" stroke="none" 
	d="
M519.900757,357.882019 
	C518.692261,359.802124 517.547913,361.361359 517.018372,362.082886 
	C504.970184,354.551544 493.182587,347.184357 481.399658,339.809692 
	C481.122833,339.636475 480.921631,339.343353 480.646240,339.166901 
	C478.156250,337.571136 474.435669,336.496552 473.506378,334.259460 
	C472.584045,332.039154 474.376129,328.627869 475.136932,325.781464 
	C483.781647,293.437897 492.470215,261.106018 501.118011,228.763275 
	C505.167664,213.617523 509.128479,198.447998 513.209351,183.310730 
	C513.614624,181.807312 514.577820,180.454315 515.365173,178.863556 
	C542.071533,194.786011 568.404236,210.485687 595.581360,226.688858 
	C570.292114,270.444519 545.128479,313.982849 519.900757,357.882019 
z"/>
</svg>