<svg version="1.1" id="Layer_1" xmlns="http://www.w3.org/2000/svg" xmlns:xlink="http://www.w3.org/1999/xlink" x="0px" y="0px"
	 width="100%" viewBox="0 0 200 200" enable-background="new 0 0 200 200" xml:space="preserve">
<path fill="#000000" opacity="000000" stroke="none" 
	d="
M94.000000,201.000000 
	C62.666668,201.000000 31.833338,201.000000 1.000004,201.000000 
	C1.000003,134.333344 1.000003,67.666679 1.000001,1.000013 
	C67.666656,1.000009 134.333313,1.000009 200.999969,1.000004 
	C200.999985,67.666649 200.999985,134.333298 201.000000,200.999969 
	C165.500000,201.000000 130.000000,201.000000 94.000000,201.000000 
M118.500000,183.000000 
	C130.482971,182.999985 142.466721,183.065735 154.447952,182.921677 
	C156.052322,182.902405 158.191666,182.291153 159.157166,181.162079 
	C169.447571,169.128403 170.147842,151.608322 160.086578,139.826767 
	C155.317871,134.242706 149.291382,129.671158 143.524078,125.026665 
	C140.496231,122.588287 136.837952,119.349770 133.396439,119.266075 
	C111.773323,118.740219 90.131012,118.972832 68.495399,119.051987 
	C66.778511,119.058266 64.653099,119.290985 63.417126,120.286789 
	C56.555485,125.815018 49.159870,130.943130 43.352005,137.460266 
	C32.325150,149.833740 31.967117,166.298981 41.531799,179.753372 
	C42.777733,181.505981 45.855934,182.840836 48.100021,182.862549 
	C71.231621,183.086426 94.366226,183.000000 118.500000,183.000000 
M88.000000,70.500000 
	C87.999992,79.498772 88.167892,88.503242 87.862564,97.491638 
	C87.799217,99.356689 86.348938,101.554260 84.898407,102.918869 
	C81.086594,106.504898 76.922386,109.716347 72.142624,113.708374 
	C91.258247,113.708374 109.323074,113.708374 128.429047,113.708374 
	C126.409477,111.559242 124.991341,109.416138 123.025681,108.076279 
	C116.935989,103.925339 113.417511,99.414070 113.722771,90.994827 
	C114.537384,68.527420 114.004128,46.010998 113.990341,23.514069 
	C113.989464,22.077188 113.849709,20.640394 113.778923,19.286968 
	C105.023476,19.286968 96.617645,19.286968 88.000000,19.286968 
	C88.000000,36.215340 88.000000,52.857670 88.000000,70.500000 
z"/>
<path fill="#FFFFFF" opacity="1.000000" stroke="none" 
	d="
M118.000000,183.000000 
	C94.366226,183.000000 71.231621,183.086426 48.100021,182.862549 
	C45.855934,182.840836 42.777733,181.505981 41.531799,179.753372 
	C31.967117,166.298981 32.325150,149.833740 43.352005,137.460266 
	C49.159870,130.943130 56.555485,125.815018 63.417126,120.286789 
	C64.653099,119.290985 66.778511,119.058266 68.495399,119.051987 
	C90.131012,118.972832 111.773323,118.740219 133.396439,119.266075 
	C136.837952,119.349770 140.496231,122.588287 143.524078,125.026665 
	C149.291382,129.671158 155.317871,134.242706 160.086578,139.826767 
	C170.147842,151.608322 169.447571,169.128403 159.157166,181.162079 
	C158.191666,182.291153 156.052322,182.902405 154.447952,182.921677 
	C142.466721,183.065735 130.482971,182.999985 118.000000,183.000000 
z"/>
<path fill="#FFFFFF" opacity="1.000000" stroke="none" 
	d="
M88.000000,70.000000 
	C88.000000,52.857670 88.000000,36.215340 88.000000,19.286968 
	C96.617645,19.286968 105.023476,19.286968 113.778923,19.286968 
	C113.849709,20.640394 113.989464,22.077188 113.990341,23.514069 
	C114.004128,46.010998 114.537384,68.527420 113.722771,90.994827 
	C113.417511,99.414070 116.935989,103.925339 123.025681,108.076279 
	C124.991341,109.416138 126.409477,111.559242 128.429047,113.708374 
	C109.323074,113.708374 91.258247,113.708374 72.142624,113.708374 
	C76.922386,109.716347 81.086594,106.504898 84.898407,102.918869 
	C86.348938,101.554260 87.799217,99.356689 87.862564,97.491638 
	C88.167892,88.503242 87.999992,79.498772 88.000000,70.000000 
z"/>
</svg>