<svg version="1.1" id="Layer_1" xmlns="http://www.w3.org/2000/svg" xmlns:xlink="http://www.w3.org/1999/xlink" x="0px" y="0px"
	 width="16px" height="64px" viewBox="0 0 860 1060" enable-background="new 0 0 860 1060" xml:space="preserve">
<path fill-opacity="0" opacity="1.000000" stroke="none" 
	d="
M432.000000,1061.000000 
	C288.000000,1061.000000 144.500000,1061.000000 1.000000,1061.000000 
	C1.000000,707.666687 1.000000,354.333344 1.000000,1.000000 
	C287.666656,1.000000 574.333313,1.000000 861.000000,1.000000 
	C861.000000,354.333344 861.000000,707.666687 861.000000,1061.000000 
	C718.166687,1061.000000 575.333313,1061.000000 432.000000,1061.000000 
M715.000000,84.500000 
	C715.000000,69.728645 715.000000,54.957287 715.000000,39.318085 
	C712.749390,40.399174 710.982361,40.858459 709.722961,41.919983 
	C704.079224,46.676880 698.581177,51.606632 693.028259,56.471279 
	C685.010437,63.495213 677.038269,70.572220 668.960144,77.526085 
	C657.678528,87.237579 646.283630,96.817490 635.001343,106.528137 
	C626.922668,113.481354 618.998718,120.614273 610.916748,127.563461 
	C599.755493,137.160294 588.471802,146.614685 577.314087,156.215591 
	C569.108765,163.276108 561.076050,170.537277 552.867981,177.594574 
	C541.832458,187.082886 530.658569,196.410370 519.626770,205.902908 
	C511.295532,213.071701 503.153564,220.460480 494.819794,227.626266 
	C483.910370,237.006668 472.856201,246.218597 461.938110,255.589005 
	C453.849884,262.530731 445.934692,269.674194 437.842712,276.611450 
	C427.045898,285.867615 416.099670,294.949707 405.317505,304.222656 
	C396.857971,311.498047 388.626526,319.038879 380.157013,326.302277 
	C367.127106,337.476593 353.917938,348.441986 340.901703,359.631958 
	C329.956451,369.041412 319.247986,378.726105 308.308929,388.142914 
	C292.565582,401.695435 276.659637,415.059082 260.916290,428.611572 
	C249.977249,438.028290 239.273254,447.718231 228.323532,457.122253 
	C212.942520,470.332123 197.371216,483.320465 181.995255,496.536072 
	C170.924850,506.051117 160.156570,515.920593 148.988998,525.317505 
	C146.291260,527.587463 146.438629,529.052246 148.567078,531.051208 
	C152.287674,534.545654 156.043716,538.006958 159.887131,541.365112 
	C172.597900,552.471069 185.369705,563.507019 198.086456,574.606140 
	C204.024658,579.788940 209.846024,585.105896 215.797958,590.272705 
	C227.916855,600.792725 240.137604,611.195862 252.222382,621.754761 
	C261.501129,629.861938 270.586243,638.190369 279.846741,646.318726 
	C292.657196,657.563110 305.563934,668.697693 318.404266,679.908203 
	C324.216309,684.982544 329.936737,690.161865 335.753113,695.231140 
	C348.352142,706.211853 361.022339,717.111023 373.593719,728.123108 
	C382.737244,736.132629 391.721558,744.323853 400.862274,752.336487 
	C413.554901,763.462891 426.342743,774.480530 439.059265,785.579773 
	C444.997406,790.762756 450.820038,796.078308 456.772095,801.245056 
	C468.891022,811.765015 481.111267,822.168701 493.196014,832.727478 
	C502.474762,840.834717 511.566071,849.156128 520.819275,857.292847 
	C533.869141,868.768066 547.003479,880.147095 560.077759,891.594604 
	C566.007874,896.786926 571.836365,902.095703 577.788330,907.262451 
	C589.907288,917.782532 602.127930,928.185791 614.212708,938.744751 
	C623.491455,946.851868 632.575195,955.182007 641.837646,963.308167 
	C654.525757,974.439636 667.322754,985.446838 680.031616,996.554871 
	C688.682373,1004.116028 697.215759,1011.812256 705.916931,1019.314331 
	C707.463928,1020.648132 709.575867,1021.326782 713.000000,1023.141785 
	C713.000000,1001.699402 713.000000,981.791931 713.000000,961.884399 
	C713.000000,952.385742 713.109680,942.884644 712.899353,933.390686 
	C712.861328,931.673523 711.932129,929.537659 710.688232,928.365845 
	C706.532104,924.450500 701.968262,920.972717 697.704346,917.166321 
	C690.210999,910.477112 682.873413,903.613525 675.381653,896.922485 
	C660.560852,883.685913 645.671814,870.525757 630.826599,857.316467 
	C624.316833,851.524109 617.888611,845.639587 611.347595,839.882996 
	C598.053528,828.182983 584.659668,816.596069 571.401794,804.855469 
	C563.633179,797.976013 556.104065,790.826599 548.367188,783.910461 
	C533.552307,770.667236 518.658386,757.512512 503.812958,744.303284 
	C497.303192,738.510986 490.869568,732.632629 484.335968,726.867493 
	C470.682831,714.820312 456.950439,702.862671 443.321472,690.788269 
	C435.927826,684.237854 428.725739,677.471619 421.356293,670.893433 
	C406.531860,657.660645 391.644104,644.498779 376.798553,631.289612 
	C370.288757,625.497314 363.860474,619.612915 357.321808,613.853699 
	C341.074860,599.543579 324.732971,585.340942 308.532257,570.978882 
	C297.818146,561.480835 287.301575,551.760193 276.656921,542.183289 
	C272.586884,538.521606 268.406189,534.982849 264.089264,531.225586 
	C272.070374,523.975220 279.912872,516.685120 287.936157,509.599670 
	C300.961517,498.096924 314.138458,486.765991 327.185608,475.287689 
	C334.102173,469.202820 340.831207,462.905090 347.731110,456.800934 
	C361.493347,444.625732 375.327698,432.532043 389.106476,420.375519 
	C395.390961,414.830933 401.569305,409.165680 407.874817,403.645416 
	C420.699524,392.417908 433.618896,381.298340 446.418030,370.041931 
	C453.585449,363.738434 460.535797,357.188629 467.680023,350.858154 
	C481.557190,338.561768 495.512238,326.353302 509.414276,314.084839 
	C515.573303,308.649567 521.654907,303.126709 527.818604,297.696747 
	C541.481567,285.660217 555.190857,273.676086 568.847595,261.632355 
	C575.257812,255.979218 581.543457,250.184555 587.967346,244.547226 
	C601.028809,233.085175 614.179260,221.724319 627.226562,210.246216 
	C634.143188,204.161514 640.871155,197.862671 647.771179,191.758759 
	C661.533875,179.583969 675.330750,167.447510 689.165161,155.354324 
	C696.064209,149.323608 703.084412,143.431595 710.035645,137.460327 
	C713.232300,134.714371 715.315430,131.837753 715.157776,126.989059 
	C714.708557,113.172264 715.000000,99.331398 715.000000,84.500000 
z"/>
<path fill="#FFFFFF" opacity="1.000000" stroke="none" 
	d="
M715.000000,85.000000 
	C715.000000,99.331398 714.708557,113.172264 715.157776,126.989059 
	C715.315430,131.837753 713.232300,134.714371 710.035645,137.460327 
	C703.084412,143.431595 696.064209,149.323608 689.165161,155.354324 
	C675.330750,167.447510 661.533875,179.583969 647.771179,191.758759 
	C640.871155,197.862671 634.143188,204.161514 627.226562,210.246216 
	C614.179260,221.724319 601.028809,233.085175 587.967346,244.547226 
	C581.543457,250.184555 575.257812,255.979218 568.847595,261.632355 
	C555.190857,273.676086 541.481567,285.660217 527.818604,297.696747 
	C521.654907,303.126709 515.573303,308.649567 509.414276,314.084839 
	C495.512238,326.353302 481.557190,338.561768 467.680023,350.858154 
	C460.535797,357.188629 453.585449,363.738434 446.418030,370.041931 
	C433.618896,381.298340 420.699524,392.417908 407.874817,403.645416 
	C401.569305,409.165680 395.390961,414.830933 389.106476,420.375519 
	C375.327698,432.532043 361.493347,444.625732 347.731110,456.800934 
	C340.831207,462.905090 334.102173,469.202820 327.185608,475.287689 
	C314.138458,486.765991 300.961517,498.096924 287.936157,509.599670 
	C279.912872,516.685120 272.070374,523.975220 264.089264,531.225586 
	C268.406189,534.982849 272.586884,538.521606 276.656921,542.183289 
	C287.301575,551.760193 297.818146,561.480835 308.532257,570.978882 
	C324.732971,585.340942 341.074860,599.543579 357.321808,613.853699 
	C363.860474,619.612915 370.288757,625.497314 376.798553,631.289612 
	C391.644104,644.498779 406.531860,657.660645 421.356293,670.893433 
	C428.725739,677.471619 435.927826,684.237854 443.321472,690.788269 
	C456.950439,702.862671 470.682831,714.820312 484.335968,726.867493 
	C490.869568,732.632629 497.303192,738.510986 503.812958,744.303284 
	C518.658386,757.512512 533.552307,770.667236 548.367188,783.910461 
	C556.104065,790.826599 563.633179,797.976013 571.401794,804.855469 
	C584.659668,816.596069 598.053528,828.182983 611.347595,839.882996 
	C617.888611,845.639587 624.316833,851.524109 630.826599,857.316467 
	C645.671814,870.525757 660.560852,883.685913 675.381653,896.922485 
	C682.873413,903.613525 690.210999,910.477112 697.704346,917.166321 
	C701.968262,920.972717 706.532104,924.450500 710.688232,928.365845 
	C711.932129,929.537659 712.861328,931.673523 712.899353,933.390686 
	C713.109680,942.884644 713.000000,952.385742 713.000000,961.884399 
	C713.000000,981.791931 713.000000,1001.699402 713.000000,1023.141785 
	C709.575867,1021.326782 707.463928,1020.648132 705.916931,1019.314331 
	C697.215759,1011.812256 688.682373,1004.116028 680.031616,996.554871 
	C667.322754,985.446838 654.525757,974.439636 641.837646,963.308167 
	C632.575195,955.182007 623.491455,946.851868 614.212708,938.744751 
	C602.127930,928.185791 589.907288,917.782532 577.788330,907.262451 
	C571.836365,902.095703 566.007874,896.786926 560.077759,891.594604 
	C547.003479,880.147095 533.869141,868.768066 520.819275,857.292847 
	C511.566071,849.156128 502.474762,840.834717 493.196014,832.727478 
	C481.111267,822.168701 468.891022,811.765015 456.772095,801.245056 
	C450.820038,796.078308 444.997406,790.762756 439.059265,785.579773 
	C426.342743,774.480530 413.554901,763.462891 400.862274,752.336487 
	C391.721558,744.323853 382.737244,736.132629 373.593719,728.123108 
	C361.022339,717.111023 348.352142,706.211853 335.753113,695.231140 
	C329.936737,690.161865 324.216309,684.982544 318.404266,679.908203 
	C305.563934,668.697693 292.657196,657.563110 279.846741,646.318726 
	C270.586243,638.190369 261.501129,629.861938 252.222382,621.754761 
	C240.137604,611.195862 227.916855,600.792725 215.797958,590.272705 
	C209.846024,585.105896 204.024658,579.788940 198.086456,574.606140 
	C185.369705,563.507019 172.597900,552.471069 159.887131,541.365112 
	C156.043716,538.006958 152.287674,534.545654 148.567078,531.051208 
	C146.438629,529.052246 146.291260,527.587463 148.988998,525.317505 
	C160.156570,515.920593 170.924850,506.051117 181.995255,496.536072 
	C197.371216,483.320465 212.942520,470.332123 228.323532,457.122253 
	C239.273254,447.718231 249.977249,438.028290 260.916290,428.611572 
	C276.659637,415.059082 292.565582,401.695435 308.308929,388.142914 
	C319.247986,378.726105 329.956451,369.041412 340.901703,359.631958 
	C353.917938,348.441986 367.127106,337.476593 380.157013,326.302277 
	C388.626526,319.038879 396.857971,311.498047 405.317505,304.222656 
	C416.099670,294.949707 427.045898,285.867615 437.842712,276.611450 
	C445.934692,269.674194 453.849884,262.530731 461.938110,255.589005 
	C472.856201,246.218597 483.910370,237.006668 494.819794,227.626266 
	C503.153564,220.460480 511.295532,213.071701 519.626770,205.902908 
	C530.658569,196.410370 541.832458,187.082886 552.867981,177.594574 
	C561.076050,170.537277 569.108765,163.276108 577.314087,156.215591 
	C588.471802,146.614685 599.755493,137.160294 610.916748,127.563461 
	C618.998718,120.614273 626.922668,113.481354 635.001343,106.528137 
	C646.283630,96.817490 657.678528,87.237579 668.960144,77.526085 
	C677.038269,70.572220 685.010437,63.495213 693.028259,56.471279 
	C698.581177,51.606632 704.079224,46.676880 709.722961,41.919983 
	C710.982361,40.858459 712.749390,40.399174 715.000000,39.318085 
	C715.000000,54.957287 715.000000,69.728645 715.000000,85.000000 
z"/>
</svg>